<svg version="1.1" id="Layer_1" xmlns="http://www.w3.org/2000/svg" x="0" y="0" viewBox="0 0 100 100" style="enable-background:new 0 0 100 100" xml:space="preserve"><style>.st5{fill:url(#SVGID_5_)}.st6{fill:url(#SVGID_6_)}.st7{fill:url(#SVGID_7_)}.st8{fill:url(#SVGID_8_)}.st9{fill:url(#SVGID_9_)}.st10{fill:url(#SVGID_10_)}</style><circle cx="50" cy="50" r="45.25" style="fill:#f1f2f2"/><linearGradient id="SVGID_1_" gradientUnits="userSpaceOnUse" x1="32.613" y1="59.604" x2="67.374" y2="59.604"><stop offset="0" style="stop-color:#27aae1"/><stop offset=".138" style="stop-color:#2a9fe4"/><stop offset=".708" style="stop-color:#3775f0"/><stop offset="1" style="stop-color:#3c65f5"/></linearGradient><path d="M44.71 60.03c-5.91-4.15-5.1-11.33-1.6-14.95 3.72-3.85 10.07-3.85 13.75-.02C60.44 48.8 61.1 55.94 55.32 60c.27.11.5.21.73.29 1.9.64 3.81 1.26 5.7 1.92 3.43 1.2 5.59 4.24 5.62 7.89.01 1.18.01 2.36 0 3.53-.03 1.96-1.39 3.37-3.33 3.37-9.37.01-18.73.01-28.1 0-1.92 0-3.3-1.38-3.3-3.29-.01-1.74-.11-3.5.17-5.2.51-3.09 2.42-5.19 5.36-6.27 2.12-.78 4.29-1.45 6.54-2.21zm5.3 14.41h13.64c.97 0 1.13-.16 1.14-1.11.01-1.04.01-2.09 0-3.13-.02-2.67-1.46-4.73-3.99-5.6-2.52-.87-5.06-1.7-7.59-2.54-1.74-.57-3.55-.79-5.3-.27-3.17.93-6.34 1.94-9.42 3.13-2.12.82-3.17 2.63-3.28 4.92-.05 1.15-.02 2.3-.02 3.45 0 1.01.14 1.15 1.17 1.15h13.65zm-.08-15.55c4.04.04 7.11-2.95 7.15-6.96.04-3.97-2.97-7.03-6.95-7.08-4.12-.05-7.18 2.9-7.22 6.96-.03 4.02 2.96 7.04 7.02 7.08z" style="fill:url(#SVGID_1_)"/><linearGradient id="SVGID_2_" gradientUnits="userSpaceOnUse" x1="63.667" y1="59.627" x2="86" y2="59.627"><stop offset="0" style="stop-color:#27aae1"/><stop offset=".138" style="stop-color:#2a9fe4"/><stop offset=".708" style="stop-color:#3775f0"/><stop offset="1" style="stop-color:#3c65f5"/></linearGradient><path d="M66.85 59.85c-4.55-3.9-3.65-9.4-.85-12.17a8.103 8.103 0 0 1 11.3-.13c2.95 2.81 3.82 8.41-.74 12.33 1.38.46 2.69.92 4.02 1.35 3.64 1.18 5.42 3.58 5.42 7.39 0 .78.01 1.55 0 2.33-.03 1.68-1.19 2.95-2.85 2.97-3.93.04-7.87.02-11.8.01-.85 0-1.43-.6-1.4-1.33.03-.72.57-1.22 1.41-1.22 3.69-.01 7.39-.02 11.08.01.75.01 1.07-.19 1.01-.99-.07-.82.02-1.66-.03-2.49-.1-1.78-.94-3.2-2.6-3.83-2.49-.94-5.05-1.74-7.61-2.47-1.82-.52-3.6.02-5.33.65-.7.26-1.29.12-1.66-.53-.36-.64-.2-1.24.39-1.7.06-.06.14-.12.24-.18zm10.2-6.49c0-3-2.4-5.46-5.36-5.47-2.95-.01-5.4 2.44-5.43 5.42-.03 2.99 2.47 5.54 5.42 5.53 2.95-.02 5.37-2.48 5.37-5.48z" style="fill:url(#SVGID_2_)"/><linearGradient id="SVGID_3_" gradientUnits="userSpaceOnUse" x1="14" y1="59.614" x2="36.353" y2="59.614"><stop offset="0" style="stop-color:#27aae1"/><stop offset=".138" style="stop-color:#2a9fe4"/><stop offset=".708" style="stop-color:#3775f0"/><stop offset="1" style="stop-color:#3c65f5"/></linearGradient><path d="M23.52 59.86c-2.34-1.94-3.47-4.32-3.22-7.26.18-2.09 1.07-3.85 2.64-5.25 3.28-2.94 8.31-2.69 11.28.51 2.77 2.98 3.26 8.32-1.03 11.94.11.1.22.19.32.29.51.45.62 1.01.31 1.59-.33.62-.89.81-1.57.59-.74-.23-1.47-.49-2.22-.68-1.59-.42-3.14-.13-4.66.36-1.98.64-3.96 1.3-5.92 2-1.7.61-2.8 2.2-2.84 4-.02.83.03 1.66-.02 2.49-.04.7.19.93.9.92 3.53-.03 7.07-.01 10.6-.01.27 0 .54-.02.8.02.63.09 1.02.47 1.09 1.1.07.67-.23 1.15-.87 1.35-.27.09-.58.09-.87.09-3.64.01-7.28.01-10.92 0-2.12 0-3.29-1.16-3.28-3.27 0-1.15-.09-2.32.07-3.45.41-2.88 2.04-4.82 4.79-5.79 1.47-.51 2.97-.99 4.62-1.54zm10.13-6.52c-.01-3-2.42-5.45-5.38-5.45-2.95 0-5.39 2.46-5.4 5.44-.01 3 2.48 5.53 5.44 5.5 2.94-.02 5.34-2.49 5.34-5.49z" style="fill:url(#SVGID_3_)"/><linearGradient id="SVGID_4_" gradientUnits="userSpaceOnUse" x1="38.46" y1="24.28" x2="61.579" y2="24.28"><stop offset="0" style="stop-color:#27aae1"/><stop offset=".138" style="stop-color:#2a9fe4"/><stop offset=".708" style="stop-color:#3775f0"/><stop offset="1" style="stop-color:#3c65f5"/></linearGradient><path d="M48.72 19.77v-6.81c0-.27-.01-.54 0-.8.04-.83.53-1.36 1.27-1.36.74-.01 1.27.52 1.29 1.34.02 1.53.01 3.05.01 4.58v3.08c.53.11 1.03.2 1.52.32 7.27 1.78 10.96 10.11 7.38 16.68-.04.07-.07.15-.11.21-.43.7-1.13.94-1.77.6-.64-.34-.87-1.06-.48-1.8.69-1.33 1.13-2.71 1.17-4.21.11-5.23-4.03-9.34-9.28-9.24-5.04.1-9.03 4.47-8.65 9.58.09 1.14.58 2.26.9 3.38.06.2.21.38.28.57.25.65.17 1.24-.44 1.63-.6.39-1.31.31-1.63-.28-.56-1.01-1.1-2.08-1.37-3.2-1.75-7.21 3.45-13.34 9.48-14.14.12-.02.25-.07.43-.13z" style="fill:url(#SVGID_4_)"/></svg>