<svg version="1.1" id="Layer_1" xmlns="http://www.w3.org/2000/svg" x="0" y="0" viewBox="0 0 100 100" style="enable-background:new 0 0 100 100" xml:space="preserve"><style>.st6{fill:url(#SVGID_6_)}.st7{fill:url(#SVGID_7_)}.st8{fill:url(#SVGID_8_)}.st9{fill:url(#SVGID_9_)}.st10{fill:url(#SVGID_10_)}</style><circle cx="49.97" cy="50.08" r="45.25" style="fill:#f1f2f2"/><linearGradient id="SVGID_1_" gradientUnits="userSpaceOnUse" x1="20.707" y1="65.238" x2="79.228" y2="65.238"><stop offset="0" style="stop-color:#27aae1"/><stop offset=".138" style="stop-color:#2a9fe4"/><stop offset=".708" style="stop-color:#3775f0"/><stop offset="1" style="stop-color:#3c65f5"/></linearGradient><path d="M27.69 53.61c-.35-.98-.22-1.23.76-1.58 2.88-1.02 4.94-.34 6.64 2.23 1.12 1.7 2.26 3.39 3.31 5.13.36.59.77.63 1.2.56-.28-1.18-.62-2.33-.82-3.5-.14-.86.17-1.12 1.05-1.12 4.39 0 8.77-.01 13.16.02.36 0 .78.16 1.05.39 1.4 1.18 2.76 2.4 4.14 3.6.72.63 1.07.71 2.15.47 0-.69-.01-1.39 0-2.09.01-.75.26-1.01 1.02-1.01 1.54-.01 3.07 0 4.72 0V54.9c0-.25-.01-.5 0-.75.02-.59.3-.92.79-.92.5-.01.83.35.84.95.01.81 0 1.62 0 2.53h8.48c.17 0 .33-.01.5.01.48.06.76.34.76.82 0 .46-.3.72-.74.78-.2.03-.41.01-.62.01h-8.33v18.84h10.2c.17 0 .33-.01.5.01.47.06.77.31.78.81.01.48-.24.8-.71.88-.33.05-.66.03-1 .03H67.23c-1 0-1.25-.25-1.25-1.25v-3.2h-4.56c-.92 0-1.17-.26-1.17-1.2v-1.02c-.24-.01-.42-.03-.6-.03-.62 0-1.25-.05-1.87.01-3.3.3-6.38-.41-9.44-1.64-4.77-1.92-9.64-3.61-14.46-5.41-.31-.11-.61-.26-.88-.44-3.87-2.65-7.74-5.31-11.61-7.97-.87-.6-.85-.82-.17-1.66 1.8-2.23 3.88-2.43 6.24-1.51.06.01.14.01.23.03zm-4.77 2.12c.13.1.2.17.29.22 3.6 2.47 7.19 4.94 10.79 7.4.2.14.44.24.67.33 5.95 2.21 11.9 4.42 17.86 6.62.19.07.4.17.6.17 2.31 0 4.61-.01 6.92-.02.03 0 .07-.04.12-.08v-8.69c-.39 0-.74-.04-1.08.01-.74.09-1.3-.19-1.84-.69-1.27-1.17-2.6-2.27-3.87-3.43-.38-.34-.75-.49-1.27-.49-3.66.02-7.32.01-10.98.01h-.68c.09 1.74 1.34 2.95 3.01 2.95h2.18c1.58 0 3.16-.01 4.74.01.56 0 .91.35.92.81 0 .47-.34.79-.91.82-.17.01-.33 0-.5 0-3.64 0-7.28.02-10.91-.02-.53-.01-1.12-.15-1.58-.41-3.4-1.92-6.76-3.9-10.15-5.84-.37-.21-.79-.39-1.2-.5-1.17-.32-2.23-.2-3.13.82zm39.1 2.63v14.29h3.93V58.36h-3.93zM29.7 53.39c.55 1.04.94 2.13 2.16 2.68 1.15.51 2.19 1.25 3.28 1.88.15.08.3.15.6.29-.8-1.23-1.45-2.37-2.24-3.4-.44-.57-1.07-1.03-1.7-1.41-.64-.4-1.38-.38-2.1-.04z" style="fill:url(#SVGID_1_)"/><linearGradient id="SVGID_2_" gradientUnits="userSpaceOnUse" x1="28.826" y1="36.958" x2="60.241" y2="36.958"><stop offset="0" style="stop-color:#27aae1"/><stop offset=".138" style="stop-color:#2a9fe4"/><stop offset=".708" style="stop-color:#3775f0"/><stop offset="1" style="stop-color:#3c65f5"/></linearGradient><path d="M28.83 36.97c-.01-8.65 7-15.68 15.69-15.71 8.67-.03 15.7 6.97 15.73 15.65.03 8.7-7 15.75-15.7 15.75-8.67 0-15.71-7.03-15.72-15.69zm19.42-2.17c1.16.26 2.26.47 3.33.75 2.16.55 3.4 2.16 3.41 4.4.01 1.87 0 3.74 0 5.61 0 .17.02.34.04.58 4.68-5.14 4.98-13.92-1.02-19.47-5.88-5.44-15.1-4.83-20.27 1.36-5.03 6.02-3.51 14.18.35 18.08v-.74c0-1.75-.01-3.49 0-5.24.02-2.39 1.32-4.05 3.65-4.62 1.01-.25 2.03-.46 3.08-.69-2.89-2.76-2.33-6.38-.44-8.34 2.11-2.2 5.44-2.41 7.78-.48 1.15.95 1.86 2.18 2.05 3.66.26 2.02-.44 3.73-1.96 5.14zm5.11 8.98c0-1.2.01-2.41 0-3.61-.01-1.54-.72-2.49-2.22-2.91-4.34-1.22-8.68-1.24-13.03-.02-1.55.43-2.32 1.43-2.32 3.04 0 2.37-.01 4.73.02 7.1 0 .26.16.61.37.77 4.86 3.78 11.93 3.81 16.8.07.2-.16.36-.5.37-.76.03-1.23.01-2.45.01-3.68zm-8.9-9.37c2.27.01 4.04-1.75 4.04-4 0-2.21-1.82-4.02-4.05-4.02-2.21-.01-3.98 1.75-4 3.99-.03 2.24 1.75 4.03 4.01 4.03z" style="fill:url(#SVGID_2_)"/><linearGradient id="SVGID_3_" gradientUnits="userSpaceOnUse" x1="70.65" y1="73.223" x2="72.264" y2="73.223"><stop offset="0" style="stop-color:#27aae1"/><stop offset=".138" style="stop-color:#2a9fe4"/><stop offset=".708" style="stop-color:#3775f0"/><stop offset="1" style="stop-color:#3c65f5"/></linearGradient><path d="M71.35 72.42c.55-.01.94.37.91.82-.04.48-.32.76-.8.79-.45.03-.84-.38-.81-.83.03-.49.31-.75.7-.78z" style="fill:url(#SVGID_3_)"/><linearGradient id="SVGID_4_" gradientUnits="userSpaceOnUse" x1="41.194" y1="42.963" x2="47.868" y2="42.963"><stop offset="0" style="stop-color:#27aae1"/><stop offset=".138" style="stop-color:#2a9fe4"/><stop offset=".708" style="stop-color:#3775f0"/><stop offset="1" style="stop-color:#3c65f5"/></linearGradient><path d="M44.53 48.87c-.26-.17-.51-.26-.65-.44-.86-1.06-1.72-2.13-2.54-3.23-.15-.21-.19-.61-.1-.86.78-2.21 1.58-4.41 2.44-6.59.12-.3.52-.59.85-.67.44-.11.69.27.84.67.82 2.17 1.67 4.33 2.45 6.52.1.29.03.76-.15 1.02-.75 1.04-1.56 2.05-2.38 3.04-.18.21-.47.34-.76.54zm-.06-2.36c.45-.56.9-1.07 1.29-1.63.13-.19.19-.54.11-.76-.31-.96-.68-1.91-1.04-2.85-.1-.27-.22-.54-.37-.9-.51 1.36-.98 2.6-1.42 3.85-.06.16-.03.42.06.55.42.57.88 1.12 1.37 1.74z" style="fill:url(#SVGID_4_)"/><linearGradient id="SVGID_5_" gradientUnits="userSpaceOnUse" x1="43.005" y1="43.43" x2="45.902" y2="43.43"><stop offset="0" style="stop-color:#27aae1"/><stop offset=".138" style="stop-color:#2a9fe4"/><stop offset=".708" style="stop-color:#3775f0"/><stop offset="1" style="stop-color:#3c65f5"/></linearGradient><path d="M44.47 46.51c-.49-.61-.95-1.17-1.37-1.75-.1-.13-.12-.39-.06-.55.44-1.25.91-2.48 1.42-3.85.15.37.27.63.37.9.35.95.73 1.89 1.04 2.85.07.22.02.57-.11.76-.39.56-.84 1.07-1.29 1.64z" style="fill:url(#SVGID_5_)"/></svg>