<svg width="232" height="201" fill="none" xmlns="http://www.w3.org/2000/svg"><g clip-path="url(#a)"><path d="M183.203 16.599c-.261-.175-.525-.34-.785-.508a113.919 113.919 0 0 0-24.068-11.68l-1.96 27.07h-12.426V.459c-.782-.162-1.57-.315-2.358-.459v31.48H126.84a30.63 30.63 0 0 1-21.672-8.987A30.703 30.703 0 0 1 96.191.795c-.791.171-1.577.354-2.362.55V31.48H81.803L79.936 5.668a114.1 114.1 0 0 0-24.557 13.06c-.132.09-.264.184-.393.274-.662.465-1.315.939-1.966 1.42v103.272h35.445l-.627-8.687-3.446-47.692h69.405l-3.446 47.692-.627 8.687h35.052V17.643a89.235 89.235 0 0 0-1.573-1.044Zm-89.374 42.84H83.823l-1.85-25.594H93.83V59.44Zm47.777 0h-16.807v-.507a1.861 1.861 0 0 0-.543-1.312 1.86 1.86 0 0 0-1.312-.542h-7.306a1.847 1.847 0 0 0-1.712 1.144 1.839 1.839 0 0 0-.14.71v.507H96.191V33.845h45.415V59.44Zm2.358 0V33.845h12.255L154.37 59.44h-10.406Zm77.732 128.254.234-5.273a16.985 16.985 0 0 1 7.935-2.011c-3.811 3.119-3.334 9.132-5.918 13.327a10.238 10.238 0 0 1-7.504 4.735l-3.189 1.955a17.182 17.182 0 0 1 3.614-13.912 16.545 16.545 0 0 1 3.044-2.831c.764 2.016 1.784 4.01 1.784 4.01Zm-171.109-5.779-7.696-2.333a26.006 26.006 0 0 1 .02-12.498c3.17 6.814 12.225 8.374 17.444 13.777a15.636 15.636 0 0 1 4.163 12.886l1.684 5.455a26.153 26.153 0 0 1-19.173-10.587 25.292 25.292 0 0 1-3.033-5.57c3.264-.371 6.591-1.13 6.591-1.13Z" fill="#F2F2F2"/><path d="M215.707 199.563a.61.61 0 0 1-.176.426.583.583 0 0 1-.423.174h-2.409a.586.586 0 0 1-.425-.175.595.595 0 0 1-.175-.425V126.61c0-1.608-.539-2.913-1.202-2.916H30.337c-.666.003-1.202 1.308-1.205 2.916v72.506a.602.602 0 0 1-.543.597c-.485.048-.97.09-1.453.129l-.036.003c-.264.024-.527.042-.791.063h-.003c-.138-.249-.27-.504-.405-.759a.624.624 0 0 1-.066-.279v-76.043c0-.444.018-.892.048-1.333a17.11 17.11 0 0 1 .225-1.806c.506-2.787 1.651-4.675 2.952-4.681h183.111c.19.002.377.041.551.117.256.114.487.276.681.477.263.274.487.582.668.916.641 1.131 1.1 2.817 1.262 4.779l.003.054c.042.486.063.982.06 1.477l.042 6.43.027 3.834.081 12.032.03 4.273.131 50.167Z" fill="#E6E6E6"/><path d="m231.643 200.908-82.64.092a.357.357 0 0 1-.251-.61.358.358 0 0 1 .251-.105l82.64-.092a.36.36 0 0 1 .252.105.361.361 0 0 1 0 .505.36.36 0 0 1-.252.105Z" fill="#CACACA"/><path d="M129.067 93.693h-14.636a.78.78 0 0 0-.78.782v23.149h16.198V94.475a.788.788 0 0 0-.229-.553.775.775 0 0 0-.553-.23Zm-7.269 13.152a1.738 1.738 0 0 1-1.728-1.73v-2.67a1.729 1.729 0 1 1 3.457 0v2.67a1.742 1.742 0 0 1-1.729 1.73Z" fill="#184274"/><path d="M153.304 57.567H90.739a2.03 2.03 0 0 0-2.028 2.03v42.269a2.034 2.034 0 0 0 2.028 2.03h62.565a2.033 2.033 0 0 0 2.028-2.03v-42.27a2.036 2.036 0 0 0-2.028-2.03Z" fill="#4F5E64"/><path d="M152.78 59.033H91.26a1.086 1.086 0 0 0-1.084 1.088v41.221a1.087 1.087 0 0 0 1.085 1.086h61.519a1.088 1.088 0 0 0 1.085-1.086V60.121a1.086 1.086 0 0 0-1.085-1.088Z" fill="#fff"/><path d="M113.601 116.883v2.234a.436.436 0 0 0 .436.436h15.426a.434.434 0 0 0 .436-.436v-2.234h-16.298Z" fill="#4F5E64"/><path d="M140.799 120.33h-36.601a.672.672 0 0 1-.659-.812l.568-2.701a.674.674 0 0 1 .658-.535h35.466a.673.673 0 0 1 .658.535l.568 2.701a.677.677 0 0 1-.369.747.67.67 0 0 1-.289.065Z" fill="#184274"/><path d="M106.006 116.768h-.834a.147.147 0 0 0-.147.147v.384c0 .081.066.146.147.146h.834a.146.146 0 0 0 .147-.146v-.384a.147.147 0 0 0-.147-.147Zm2.255 0h-.835a.146.146 0 0 0-.146.147v.384c0 .081.065.146.146.146h.835a.146.146 0 0 0 .146-.146v-.384a.146.146 0 0 0-.146-.147Zm2.254 0h-.834a.147.147 0 0 0-.147.147v.384c0 .081.066.146.147.146h.834a.146.146 0 0 0 .147-.146v-.384a.147.147 0 0 0-.147-.147Zm2.255 0h-.835a.146.146 0 0 0-.146.147v.384c0 .081.065.146.146.146h.835a.146.146 0 0 0 .146-.146v-.384a.146.146 0 0 0-.146-.147Zm2.254 0h-.834a.147.147 0 0 0-.147.147v.384c0 .081.066.146.147.146h.834a.146.146 0 0 0 .147-.146v-.384a.147.147 0 0 0-.147-.147Zm2.255 0h-.835a.147.147 0 0 0-.146.147v.384c0 .081.066.146.146.146h.835a.146.146 0 0 0 .146-.146v-.384a.146.146 0 0 0-.146-.147Zm2.255 0h-.835a.146.146 0 0 0-.146.147v.384c0 .081.065.146.146.146h.835c.08 0 .146-.065.146-.146v-.384a.147.147 0 0 0-.146-.147Zm2.254 0h-.835a.147.147 0 0 0-.146.147v.384c0 .081.066.146.146.146h.835a.146.146 0 0 0 .146-.146v-.384a.146.146 0 0 0-.146-.147Zm2.255 0h-.835a.146.146 0 0 0-.146.147v.384c0 .081.065.146.146.146h.835c.08 0 .146-.065.146-.146v-.384a.147.147 0 0 0-.146-.147Zm2.254 0h-.835a.147.147 0 0 0-.146.147v.384c0 .081.066.146.146.146h.835a.146.146 0 0 0 .146-.146v-.384a.146.146 0 0 0-.146-.147Zm2.255 0h-.835a.146.146 0 0 0-.146.147v.384c0 .081.065.146.146.146h.835a.146.146 0 0 0 .146-.146v-.384a.146.146 0 0 0-.146-.147Zm2.254 0h-.834a.147.147 0 0 0-.147.147v.384c0 .081.066.146.147.146h.834a.146.146 0 0 0 .147-.146v-.384a.147.147 0 0 0-.147-.147Zm2.255 0h-.835a.146.146 0 0 0-.146.147v.384c0 .081.065.146.146.146h.835a.146.146 0 0 0 .146-.146v-.384a.146.146 0 0 0-.146-.147Zm2.254 0h-.834a.147.147 0 0 0-.147.147v.384c0 .081.066.146.147.146h.834a.146.146 0 0 0 .147-.146v-.384a.147.147 0 0 0-.147-.147Zm2.255 0h-.835a.146.146 0 0 0-.146.147v.384c0 .081.065.146.146.146h.835a.146.146 0 0 0 .146-.146v-.384a.146.146 0 0 0-.146-.147Zm2.254 0h-.834a.146.146 0 0 0-.146.147v.384c0 .081.065.146.146.146h.834a.146.146 0 0 0 .147-.146v-.384a.147.147 0 0 0-.147-.147Zm-33.844 1.129h-.835a.146.146 0 0 0-.146.146v.384c0 .081.065.147.146.147h.835c.08 0 .146-.066.146-.147v-.384a.146.146 0 0 0-.146-.146Zm2.254 0h-.835a.146.146 0 0 0-.146.146v.384c0 .081.066.147.146.147h.835a.146.146 0 0 0 .146-.147v-.384a.146.146 0 0 0-.146-.146Zm2.255 0h-.835a.146.146 0 0 0-.146.146v.384c0 .081.065.147.146.147h.835a.146.146 0 0 0 .146-.147v-.384a.146.146 0 0 0-.146-.146Zm2.254 0h-.834a.146.146 0 0 0-.147.146v.384c0 .081.066.147.147.147h.834a.147.147 0 0 0 .147-.147v-.384a.146.146 0 0 0-.147-.146Zm2.255 0h-.835a.146.146 0 0 0-.146.146v.384c0 .081.065.147.146.147h.835a.146.146 0 0 0 .146-.147v-.384a.146.146 0 0 0-.146-.146Zm2.254 0h-.834a.146.146 0 0 0-.147.146v.384c0 .081.066.147.147.147h.834a.147.147 0 0 0 .147-.147v-.384a.146.146 0 0 0-.147-.146Zm2.255 0h-.835a.146.146 0 0 0-.146.146v.384c0 .081.066.147.146.147h.835a.146.146 0 0 0 .146-.147v-.384a.146.146 0 0 0-.146-.146Zm2.254 0h-.834a.146.146 0 0 0-.146.146v.384c0 .081.065.147.146.147h.834a.147.147 0 0 0 .147-.147v-.384a.146.146 0 0 0-.147-.146Zm2.255 0h-.835a.146.146 0 0 0-.146.146v.384c0 .081.066.147.146.147h.835a.146.146 0 0 0 .146-.147v-.384a.146.146 0 0 0-.146-.146Zm2.255 0h-.835a.146.146 0 0 0-.146.146v.384c0 .081.065.147.146.147h.835c.08 0 .146-.066.146-.147v-.384a.146.146 0 0 0-.146-.146Zm2.254 0h-.835a.146.146 0 0 0-.146.146v.384c0 .081.066.147.146.147h.835a.146.146 0 0 0 .146-.147v-.384a.146.146 0 0 0-.146-.146Zm2.255 0h-.835a.146.146 0 0 0-.146.146v.384c0 .081.065.147.146.147h.835c.08 0 .146-.066.146-.147v-.384a.146.146 0 0 0-.146-.146Zm2.254 0h-.834a.146.146 0 0 0-.147.146v.384c0 .081.066.147.147.147h.834a.146.146 0 0 0 .146-.147v-.384a.146.146 0 0 0-.146-.146Zm2.255 0h-.835a.146.146 0 0 0-.146.146v.384c0 .081.065.147.146.147h.835a.146.146 0 0 0 .146-.147v-.384a.146.146 0 0 0-.146-.146Zm2.254 0h-.834a.146.146 0 0 0-.147.146v.384c0 .081.066.147.147.147h.834a.147.147 0 0 0 .147-.147v-.384a.146.146 0 0 0-.147-.146Zm2.255 0h-.835a.146.146 0 0 0-.146.146v.384c0 .081.065.147.146.147h.835a.146.146 0 0 0 .146-.147v-.384a.146.146 0 0 0-.146-.146Zm-15.106 1.354h-8.725a.146.146 0 0 0-.146.146v.385c0 .081.065.146.146.146h8.725a.146.146 0 0 0 .147-.146v-.385a.147.147 0 0 0-.147-.146Z" fill="#4F5E64"/><path d="M149.689 64.712H92.125a.228.228 0 0 1-.224-.229.23.23 0 0 1 .224-.229h57.564a.23.23 0 0 1 0 .458Z" fill="#CACACA"/><path d="M96.044 63.084c.74 0 1.341-.615 1.341-1.373s-.6-1.373-1.341-1.373-1.342.614-1.342 1.373c0 .758.6 1.373 1.342 1.373Zm4.634 0c.741 0 1.342-.615 1.342-1.373s-.601-1.373-1.342-1.373c-.74 0-1.341.614-1.341 1.373 0 .758.6 1.373 1.341 1.373Zm4.634 0c.741 0 1.342-.615 1.342-1.373s-.601-1.373-1.342-1.373c-.74 0-1.341.614-1.341 1.373 0 .758.601 1.373 1.341 1.373Zm41.587-2.406h-3.292a.249.249 0 0 0 0 .5h3.292a.25.25 0 0 0 .173-.425.25.25 0 0 0-.173-.075Zm0 .937h-3.292a.249.249 0 0 0 0 .5h3.292a.25.25 0 0 0 0-.5Zm0 .935h-3.292a.25.25 0 0 0 0 .5h3.292a.25.25 0 0 0 0-.5Z" fill="#4F5E64"/><path d="M125.505 78.102h-7.193a.979.979 0 0 0 0 1.959h7.193a.979.979 0 0 0 0-1.959Z" fill="#3C65F5"/><path d="M130.152 82.02h-16.486a.979.979 0 0 0 0 1.959h16.486a.979.979 0 0 0 0-1.96Zm0 3.917h-16.486a.979.979 0 0 0 0 1.959h16.486a.979.979 0 0 0 0-1.96Z" fill="#E6E6E6"/><path d="M92.687 123.277H74.706a2.397 2.397 0 0 0-2.398 2.4 2.4 2.4 0 0 0 2.398 2.4h6.593v18.603h4.795v-18.603h6.593a2.397 2.397 0 0 0 2.398-2.4 2.4 2.4 0 0 0-2.398-2.4Z" fill="#4F5E64"/><path d="M104.555 156.983H56.46a19.408 19.408 0 0 1-12.68-4.778 19.45 19.45 0 0 1-6.475-11.915l-1.703-6.27a140.829 140.829 0 0 0-15.937-36.877c-3.221-5.237-4.88-10.306-1.114-15.186l.095-.123c3.02-3.936 18.052-4.788 22.952-4.954.193-.006.388-.01.583-.01h29.915c.195 0 .39.004.582.01 2.642.078 5.214.87 7.442 2.291a14.65 14.65 0 0 1 5.216 5.787 15.116 15.116 0 0 1-.856 15.461c-10.508 15.804-13.725 25.713-10.431 32.131 3.186 6.207 12.952 9.38 30.736 9.987 4.779.163 6.972 3.888 6.987 7.281.015 3.305-2.094 6.954-6.759 7.155-.151.007-.304.01-.458.01Z" fill="#4F5E64"/><path d="M64.63 199.739h17.982a2.397 2.397 0 0 0 2.397-2.4 2.4 2.4 0 0 0-2.397-2.4h-6.593v-40.507h-4.795v40.507H64.63a2.4 2.4 0 0 0 0 4.8Z" fill="#4F5E64"/><path d="m63.194 78.374.377 2.294c.179 1.111.824 8.967.346 9.904-.042-1.75-3.297-4.501-5.405-3.873l-3.31.736-2.053.458-1.672.367-4.858 1.062c-.008-.056-.014-.116-.023-.173a4.233 4.233 0 0 0-.526-1.51 3.238 3.238 0 0 1-.462 1.526.261.261 0 0 0-.02.038c-.086.14-.181.274-.285.401a.063.063 0 0 0-.013.012s-.998-15.93-.893-16.076c.076-.105.154-.207.234-.306a11.497 11.497 0 0 1 .269-.333 10.779 10.779 0 0 1 .978-1.019 11.068 11.068 0 0 1 4.802-2.61c.186-.047.376-.092.566-.13l.065-.014a8.705 8.705 0 0 1 .621-.103 11.146 11.146 0 0 1 4.41.248l.007.002c1.2.314 2.342.823 3.379 1.507 1.793 1.185 2.49 3.118 2.987 5.29.173.745.32 1.52.48 2.302Z" fill="#184274"/><path d="m80.905 183.409 3.098 1.685 8.2-11.351-4.572-2.487-6.726 12.153Z" fill="#FFB6B6"/><path d="m82.396 179.364 5.624 1.763-.895 2.359 3.856 5.603a1.577 1.577 0 0 1-1.855 2.368l-6.547-2.49-.243-2.762-1.326 2.165-2.468-.939 3.854-8.067Z" fill="#184274"/><path d="M98.451 132.638a3.473 3.473 0 0 1-2.887-.58 3.477 3.477 0 0 1-1.41-2.589l-26.421-9.516 4.849-4.225 25.077 9.997a3.496 3.496 0 0 1 3.463 3.104 3.5 3.5 0 0 1-2.67 3.809Z" fill="#FFB6B6"/><path d="M60.352 96.377s-4.45.099-4.846 5.185c-.395 5.086 9.314 17.667 10.819 19.742 1.504 2.075 18.214 4.628 18.214 4.628l5.68-4.129c-5.968-3.872-11.416-6.841-15.071-6.707L60.352 96.377Z" fill="#3C65F5"/><path d="m54.894 118.82 1.084 4.665s.011 4.301.772 5.094c.755.789 17.369-.796 17.369-.796s-1.762-6.931-1.738-12.175l-17.487 3.212Z" fill="#FFB6B6"/><path d="m89.99 178.485-5.994-3.3c-.114-7.809 4.578-18.376 10.142-29.445-12.444 2.143-24.184 2.829-34.339.237a6.56 6.56 0 0 1-3.972-3.006 6.577 6.577 0 0 1-.722-4.932 6.58 6.58 0 0 1 .138-.488c1.215-3.713-1.51-6.04.996-10.123 6.592-2.254 12.855-2.89 18.581-.9l3.588 7.943 17.784-2.304a6.543 6.543 0 0 1 4.852 1.373 6.569 6.569 0 0 1 2.444 4.416c.024.193.039.387.047.582-3.596 16.878-7.628 32.065-13.545 39.947Z" fill="#184274"/><path d="M55.718 86.587c4.022-.824 6.615-4.757 5.792-8.784a7.434 7.434 0 0 0-8.773-5.8 7.442 7.442 0 0 0-5.792 8.784c.823 4.027 4.75 6.624 8.773 5.8Z" fill="#FFB6B6"/><path d="m52.48 89.289 6.851-.405a1.39 1.39 0 0 1 1.368.859l1.936 4.699 8.047 6.659s3.186 4.059 3.193 9.301c.008 5.242 1.13 17.375 1.13 17.375s-4.65-6.552-7.52-4.809c-.487.296-.66.902-1.17 1.209-.256.153-.845.004-1.103.157-3.954 2.351-8.079 4.647-8.464 4.244-.757-.79-1.674-4.83-1.674-4.83l-6.272-23.069a8.557 8.557 0 0 1 1.214-7.19c.438-.618.897-1.077 1.324-1.153.957-.204.448-2.354 1.14-3.047Z" fill="#3C65F5"/><path d="m110.761 193.181 2.892-2.013-6.552-12.375-4.268 2.971 7.928 11.417Z" fill="#FFB6B6"/><path d="m111.198 184.878-4.533 4.056c-7.207-8.04-12.655-19.316-17.272-32.121-12.097-3.547-21.22-9.268-29.184-16.06-2.702-2.289-4.728-5.229-2.423-8.018.108-.13.22-.256.337-.378 2.72-2.799 9.62-2.266 13.661-4.83l9.028 9.66-.568 2.59 16.955 5.75a6.55 6.55 0 0 1 4.375 5.863 6.555 6.555 0 0 1-.378 2.544 7.032 7.032 0 0 1-.214.543l10.216 30.401Zm-2.124 7.487 4.63-3.65 1.438 2.072 6.797-.021a1.578 1.578 0 0 1 1.495 2.086 1.573 1.573 0 0 1-.592.784l-5.75 4.002-2.414-1.359 1.036 2.318-2.168 1.509-4.472-7.741Z" fill="#184274"/><path d="M62.597 147.428a3.476 3.476 0 0 1-1.97-2.192 3.49 3.49 0 0 1 .414-2.919l-15.51-23.435 6.41-.487 14.146 23.015a3.504 3.504 0 0 1 .925 4.561 3.497 3.497 0 0 1-4.415 1.457Z" fill="#FFB6B6"/><path d="M53.68 95.562s-3.628-2.583-6.98 1.26c-3.353 3.842-3.073 19.738-3.104 22.302-.01.803 1.148 2.535 2.743 4.535.716.899 1.52 1.851 2.347 2.798.478.548.066 1.688.546 2.22.478.53 1.847.452 2.302.943a194.593 194.593 0 0 0 3.907 4.109l7.02.087c.078-5.224-3.495-9.887-8.085-14.394l-.697-23.86Z" fill="#3C65F5"/><path d="M63.519 75.68a52.17 52.17 0 0 1-.804.391 24.9 24.9 0 0 1-3.254 1.325 4.101 4.101 0 0 0-.832-1.364 3.262 3.262 0 0 1-.138 1.63 9.19 9.19 0 0 1-5.106-.197c1.079 2 1.875 6.213 1.817 9.97-.025 1.987-.293 3.846-.88 5.182l-.754-2.296c-.07-.82-.21-1.632-.42-2.428-.505-2.233-.977-.74-1.671.367l-4.858 1.062c-.008-.056-.014-.116-.023-.173a4.229 4.229 0 0 0-.526-1.51 3.237 3.237 0 0 1-.462 1.526.247.247 0 0 0-.02.038 3.82 3.82 0 0 1-.285.401.066.066 0 0 0-.013.012c-3.136.42-5.334-15.772-.893-16.073.13-.01.154-.207.234-.309a11.885 11.885 0 0 1 .268-.333 13.3 13.3 0 0 1 .743-.796l.236-.223a11.233 11.233 0 0 1 4.802-2.61c.186-.047.375-.092.566-.13l.065-.014a8.603 8.603 0 0 1 .621-.103c.426.215.79.534 1.059.929l3.103-.636a4.04 4.04 0 0 1 .249-.042l.005-.001c3.875-.65 6.366 2.469 7.17 6.405Z" fill="#184274"/><path d="M46.604 72.817c-.664.48-1.363.975-2.174 1.094-.811.12-1.76-.273-1.985-1.062-.274-.965.596-1.844 1.378-2.47l2.48-1.99a5.993 5.993 0 0 1 1.521-.984 2.023 2.023 0 0 1 1.755.06 1.885 1.885 0 0 1 .828 1.641 3.51 3.51 0 0 1-.614 1.8 6.324 6.324 0 0 1-4.103 2.792" fill="#184274"/><path d="M65.415 124.477H47.434a2.397 2.397 0 0 0-2.398 2.4 2.397 2.397 0 0 0 2.398 2.401h6.593v18.602h4.795v-18.602h6.593a2.397 2.397 0 0 0 2.398-2.401 2.402 2.402 0 0 0-2.398-2.4Z" fill="#4F5E64"/><path d="M131.846 200.608.356 200.7a.355.355 0 0 1-.355-.357.359.359 0 0 1 .356-.358l131.489-.092a.356.356 0 0 1 .356.357.361.361 0 0 1-.104.253.36.36 0 0 1-.252.105Z" fill="#CACACA"/><path d="m170.111 160.757 2.927 3.194 13.697-9.784-4.32-4.714-12.304 11.304Z" fill="#A0616A"/><path d="M176.169 165.277v-.003l-.296-3.189-.135-.063-.789-.376-3.719-1.761-.078-.084-.746-.816-4.133 3.799 5.599 6.109 3.839 4.188.129-.12a5.45 5.45 0 0 0 1.431-5.871 5.42 5.42 0 0 0-1.102-1.813Z" fill="#184274"/><path d="m154.946 192.617 4.142 1.26 6.825-15.398-6.114-1.859-4.853 15.997Z" fill="#A0616A"/><path d="M165.671 196.065a5.39 5.39 0 0 0-3.213-2.641l-1.879-2.595-.147.012-4.965.456-.111-.033-1.055-.321-1.631 5.374 13.358 4.062.051-.171a5.426 5.426 0 0 0-.408-4.143Zm23.433-84.068s26.448 25.566 9.728 33.48h-5.168s-1.553-5.524-5.108-10.182c-.488-.64-2.317-.51-2.825-1.133-3.102-3.807-6.464-7.076-8.787-6.947l.556 17.665.899 6.301c.472 3.257-12.852 31.698-12.852 31.698l-8.374-3.296s8.725-23.424 8.827-26.802l-6.992-37.132 30.096-3.652Z" fill="#184274"/><path d="M191.31 113.258a1.563 1.563 0 0 1-.516.468 3.613 3.613 0 0 1-1.082.402c-5.955 1.353-25.408 4.159-30.457 2.821-.621-.162-1.025-.39-1.157-.69-.423-.949-.369-4.954-.12-9.791.045-.906 1.043-1.887 1.103-2.835.042-.711-.854-1.381-.806-2.104.329-4.89.755-9.874 1.04-13.025.179-2.025.302-3.291.302-3.291l-3.072-19.392.144-.237.162-.081 9.905-4.909.539-1.38a2.14 2.14 0 0 1 1.975-1.353l6.525-.027a2.125 2.125 0 0 1 1.735.882l1.768 2.451 11.688 7.501-.045.138-5.484 16.71-.027 1.302v.003l-.204 10.472.566 1.419-.638 2.328s.294 2.722 1.867 4.744c1.426 1.836 3.243 3.751 4.064 5.305v.003c.455.858.608 1.602.225 2.166Z" fill="#3C65F5"/><path d="m200.102 143.958-1.414 1.789s-13.001 9.106-13.448 9.958l-2.054 1.946-4.972-5.321 2.585-3.244a20.295 20.295 0 0 1 7.786-5.968l3.963-3.52 7.554 4.36Z" fill="#184274"/><path d="m191.841 118.398-2.368-22.944-.625-9.444 6.627-1.2s-.262 6.753.606 10.563c.856 3.759.113 22.521.06 23.023a3.227 3.227 0 0 1 .863 3.557 3.218 3.218 0 0 1-3.01 2.077 3.22 3.22 0 0 1-3.013-2.074 3.228 3.228 0 0 1 .86-3.558Z" fill="#A0616A"/><path d="m198.305 100.208-8.518 1.765-.745-2.972-.868-.922-1.735-9.099-2.489-5.33.647-18.226 6.322 3.357.008.006c.966 1.051 1.633 2.555 2.741 4.064 3.491 4.755 3.878 16.31 3.773 22.64-.002.104.102.213.228.329a3.512 3.512 0 0 1 .636 4.388Z" fill="#3C65F5"/><path d="m153.269 119.298 2.368-22.944.625-9.444-6.627-1.2s.262 6.753-.606 10.563c-.857 3.759-.114 22.521-.061 23.023a3.232 3.232 0 0 0 .32 5.065 3.226 3.226 0 0 0 3.981-5.063Z" fill="#A0616A"/><path d="m161.161 84.55-1.846 3.954-.645 1.378-1.735 9.097-.866.921-.746 2.974-.351-.072-6.323-1.312-1.844-.381a3.511 3.511 0 0 1 .636-4.39c.126-.113.231-.224.228-.33-.105-6.327.281-17.882 3.773-22.638 1.108-1.51 1.774-3.012 2.742-4.063.003-.002.003-.005.006-.005l2.355-3.862.144-.237.162-.081 4.31 19.047Z" fill="#3C65F5"/><path d="M172.344 55.974c4.794 0 8.681-3.89 8.681-8.69 0-4.8-3.887-8.692-8.681-8.692-4.794 0-8.681 3.891-8.681 8.691 0 4.8 3.887 8.691 8.681 8.691Z" fill="#A0616A"/><path d="M182.103 43.47c-.03-1.482-.198-3.378-1.235-4.89-.875-1.272-2.64-2.28-4.285-1.776a1.787 1.787 0 0 0-.887-1.645c-.624-.38-1.373-.45-2.035-.513-1.67-.156-3.399-.318-5.089.003-1.897.36-3.449 1.338-4.256 2.686l-.018.042-.164.798a.755.755 0 0 1-.375.51.746.746 0 0 1-.632.045.687.687 0 0 0-.92.744l.045.318-.477-.09a.682.682 0 0 0-.805.557.692.692 0 0 0 .035.358l.132.363a.731.731 0 0 0-.525.231.672.672 0 0 0-.09.786 6.24 6.24 0 0 0 2.2 2.215 5.176 5.176 0 0 0 1.606.633c3.68.794 7.473.908 11.194.336a6.35 6.35 0 0 0-.249 2.268c.12.957.68 1.746 1.43 2.01a3 3 0 0 0 .521.127c.17.027.337.068.501.123a1.454 1.454 0 0 1 .935 1.124 1.458 1.458 0 0 1-.51 1.372s.785.651.884.618c.386-.17.709-.458.923-.822 1.496-2.154 2.218-5.023 2.146-8.53Z" fill="#184274"/></g><defs><clipPath id="a"><path fill="#fff" d="M0 0h232v201H0z"/></clipPath></defs></svg>