<svg width="30" height="30" fill="none" xmlns="http://www.w3.org/2000/svg"><circle cx="15" cy="15" r="15" fill="#3C65F5"/><path d="M10.204 11.296c-.345 0-.635-.107-.868-.322A1.123 1.123 0 0 1 9 10.148c0-.327.112-.597.336-.812.233-.224.523-.336.868-.336s.63.112.854.336c.233.215.35.485.35.812a1.1 1.1 0 0 1-.35.826c-.224.215-.509.322-.854.322Zm.966.924v7.756H9.21V12.22h1.96Zm6.234-.112c.924 0 1.671.294 2.24.882.57.579.855 1.39.855 2.436v4.55h-1.96v-4.284c0-.616-.155-1.087-.463-1.414-.308-.336-.727-.504-1.26-.504-.54 0-.97.168-1.287.504-.309.327-.463.798-.463 1.414v4.284h-1.96V12.22h1.96v.966c.262-.336.593-.597.995-.784a3.08 3.08 0 0 1 1.343-.294Z" fill="#fff"/></svg>