<svg version="1.1" id="Layer_1" xmlns="http://www.w3.org/2000/svg" x="0" y="0" viewBox="0 0 100 100" style="enable-background:new 0 0 100 100" xml:space="preserve"><style>.st2{fill:url(#SVGID_2_)}.st3{fill:url(#SVGID_3_)}.st4{fill:url(#SVGID_4_)}.st5{fill:url(#SVGID_5_)}.st6{fill:url(#SVGID_6_)}.st7{fill:url(#SVGID_7_)}.st8{fill:url(#SVGID_8_)}.st9{fill:url(#SVGID_9_)}.st10{fill:url(#SVGID_10_)}</style><circle cx="49.5" cy="50.44" r="45.25" style="fill:#f1f2f2"/><linearGradient id="SVGID_1_" gradientUnits="userSpaceOnUse" x1="21.796" y1="50.486" x2="77.062" y2="50.486"><stop offset="0" style="stop-color:#27aae1"/><stop offset=".138" style="stop-color:#2a9fe4"/><stop offset=".708" style="stop-color:#3775f0"/><stop offset="1" style="stop-color:#3c65f5"/></linearGradient><path d="M58.47 74.04c-1.39-1.42-3.04-2.26-4.95-2.63-1.62-.32-3.23-.13-4.77.35-4.95 1.53-9.5.57-13.74-2.18-4.02-2.6-7.77-5.56-11.27-8.84a7.689 7.689 0 0 1-1.55-2.07c-.58-1.12-.54-2.31.28-3.34.81-1.02 1.94-1.33 3.19-1.14.76.12 1.49.41 2.24.62.85-8.01 3.89-15.03 9.67-20.83-.79-.77-1.3-1.71-1.07-2.89.22-1.15.93-1.9 2.03-2.34-.29-.54-.6-1.05-.84-1.59-1.56-3.44-.12-7.13 3.24-8.24 1.98-.65 3.79-.25 5.43.97 2.25-1.71 5.36-1.86 7.66.37 1.66 1.61 2.75 4.46.22 8.47 1.06.45 1.83 1.18 2.03 2.35.19 1.14-.18 2.11-1.08 2.87.76.83 1.55 1.59 2.23 2.43 4.29 5.32 6.77 11.39 7.4 18.2.07.75-.01 1.52.01 2.28.01.22.08.48.22.65.41.5.88.95 1.31 1.44.42.47.82.95 1.29 1.5.21-.31.41-.59.6-.87 1.27-1.82 3.38-2.22 5.23-.99.61.41 1.22.83 1.82 1.25 1.9 1.33 2.31 3.39 1.01 5.31-2.85 4.24-5.72 8.48-8.58 12.71-.62.92-1.24 1.86-1.88 2.77-1.31 1.88-3.43 2.27-5.33.97-.65-.44-1.3-.87-1.93-1.33-1.65-1.19-2.04-3.26-.96-4.99.26-.39.54-.8.84-1.24zm4.3-18.62c.05-.08.09-.11.09-.14.01-.18.01-.36 0-.54-.23-3.59-1.25-6.97-2.72-10.23-1.6-3.53-3.66-6.75-6.61-9.33-.46-.41-.93-.6-1.56-.6-3.28.03-6.57.12-9.85-.03-1.74-.08-2.93.52-4.07 1.74-3.45 3.68-5.74 8.01-7.08 12.83-.56 2.01-.75 4.11-1.08 6.18-.03.19.08.54.22.61 1.78.86 3.58 1.68 5.4 2.52.81-2.01 2.4-2.79 4.36-3.01 1.15-.13 2.35-.05 3.46-.34 1.67-.45 3.29-1.12 4.9-1.75 1.58-.62 3.15-1.27 4.87-1.37 3.4-.2 6.34 1.02 9.02 2.99l.65.47zm3.73 6.75c-1.73-2.1-3.45-4.1-5.59-5.68-2.41-1.77-5.06-2.96-8.1-2.48-1.6.26-3.17.89-4.67 1.54-2.43 1.05-4.9 1.79-7.56 1.78-.48 0-.98.1-1.45.24-.82.24-1.6.64-1.7 1.59-.11.99.45 1.73 1.28 2.18.6.32 1.28.6 1.94.66 2.33.18 4.68.26 7.02.38.73.04 1.13.35 1.14.94.02.62-.39 1.02-1.15.99-2.32-.08-4.65-.1-6.95-.31-2.11-.19-3.93-1.02-4.92-3.09-.08-.18-.3-.32-.49-.41-2.83-1.32-5.65-2.65-8.5-3.94-.54-.24-1.15-.4-1.73-.43-1.04-.05-1.56.69-1.12 1.63.3.63.77 1.21 1.28 1.69 3.33 3.09 6.89 5.89 10.69 8.38 2.36 1.55 4.93 2.71 7.81 2.66 1.65-.03 3.31-.42 4.94-.75 1.7-.34 3.38-.58 5.11-.28 2.21.39 4.14 1.36 5.84 2.9 2.29-3.4 4.57-6.78 6.88-10.19zM62.74 80.4c.64 0 1.11-.29 1.46-.81.6-.89 1.2-1.77 1.8-2.66 2.87-4.25 5.75-8.5 8.62-12.76.77-1.14.6-2-.54-2.79-.53-.37-1.06-.74-1.6-1.1-1.07-.71-1.95-.54-2.69.53-.73 1.07-1.45 2.14-2.18 3.22-2.71 4.01-5.42 8.03-8.14 12.04-.4.58-.65 1.17-.36 1.88.29.68 2.88 2.44 3.63 2.45zm-9.43-53.92c-.17-.11-.22-.16-.29-.18-3.01-.88-5.68-2.27-7.78-4.71-1.04-1.21-2.93-1.32-4.33-.54a3.773 3.773 0 0 0-1.87 3.91c.22 1.29.86 2.39 1.7 3.36.15.17.45.28.68.28 3.31.02 6.61.01 9.92.01.19 0 .46-.02.55-.14.5-.64.95-1.32 1.42-1.99zm-6.95 6.17h6.43c.18 0 .36.01.54-.01.61-.06 1.03-.49 1.03-1.03 0-.55-.41-.97-1.02-1.04-.13-.02-.27-.01-.4-.01H39.82c-.22 0-.51-.04-.65.08-.29.26-.61.58-.71.93-.13.48.2.85.68 1 .23.07.48.07.73.07 2.16.01 4.32.01 6.49.01zm7.33-8.22c.15-1.38-.64-2.75-1.93-3.43-1.3-.68-2.88-.54-3.99.4 1.71 1.55 3.73 2.44 5.92 3.03z" style="fill:url(#SVGID_1_)"/></svg>