<svg width="213" height="170" fill="none" xmlns="http://www.w3.org/2000/svg"><g clip-path="url(#a)"><path d="m142.32 37.237-.135.023c-1.108.183-7.81 1.219-14.566-1.359-2.862-1.092-1.886-1.364-8.26-5.16-7.474-4.45-9.392-4.42-9.948-6.495-1.111-4.144 4.823-10.658 8.75-10.23 1.034.114 2.142.731 3.864.313.378-.092 2.035-.495 2.843-1.868.72-1.225.11-2.109.4-3.114.76-2.637 7.1-3.953 12.658-3.023 3.196.535 5.683 1.995 10.525 4.893 8.428 5.045 12.642 7.568 13.589 11.433.898 3.663-1.257 5.241.31 9.162 1.459 3.651 3.777 3.408 4.574 6.361 1.284 4.753-3.479 9.97-5.463 12.142-2.176 2.383-4.256 3.69-7.018 5.426-3.467 2.179-5.2 3.268-7.284 3.158-3.778-.201-15.006.483-15.152-2.649-.055-1.173-13.672-.212-6.967-12.846.822-1.55 16.933.105 17.146-.785" fill="#05264E"/><path d="m148.84 45.322 11.581 17.3-33.242 6.732 2.117-21.659 19.544-2.373Z" fill="#FFB6B6"/><path opacity=".1" d="m148.84 45.322 11.581 17.3-33.242 6.732 2.117-21.659 19.544-2.373Z" fill="#000"/><path d="m124.689 58.133 35.854-1.496 15.935 8.728-.747 56.105 16.682 31.668-84.157-15.959 6.473-23.938-2.987-50.37 12.947-4.738Z" fill="#3C65F5"/><path d="M.966 167.127a6.16 6.16 0 0 1-.362-5.972L14.25 132.44a6.205 6.205 0 0 1 5.578-3.527h172.361c2.304 0 4.4 1.269 5.47 3.312l14.627 27.924a6.147 6.147 0 0 1-.178 6.064 6.128 6.128 0 0 1-5.268 2.996L6.206 170h-.025a6.142 6.142 0 0 1-5.215-2.873Z" fill="#fff"/><path d="M.966 167.127a6.16 6.16 0 0 1-.362-5.972L14.25 132.44a6.205 6.205 0 0 1 5.578-3.527h172.361c2.304 0 4.4 1.269 5.47 3.312l14.627 27.924a6.147 6.147 0 0 1-.178 6.064 6.128 6.128 0 0 1-5.268 2.996L6.206 170h-.025a6.142 6.142 0 0 1-5.215-2.873Zm18.862-37.565a5.554 5.554 0 0 0-4.992 3.157L1.19 161.434a5.515 5.515 0 0 0 .323 5.346 5.497 5.497 0 0 0 4.668 2.571h.022l200.635-.791a5.487 5.487 0 0 0 4.715-2.682 5.503 5.503 0 0 0 .159-5.427l-14.627-27.924a5.51 5.51 0 0 0-4.896-2.965H19.828Z" fill="#3F3D56"/><path d="m176.142 159.023-71.129-4.898a2.322 2.322 0 0 1-2.133-1.806 2.326 2.326 0 0 1 1.081-2.58l15.728-9.452c.4-.24.858-.356 1.322-.334l61.526 2.801c.813.037 1.54.481 1.944 1.19.403.708.416 1.561.034 2.281l-6.126 11.548a2.363 2.363 0 0 1-2.247 1.25Z" fill="#3F3D56"/><path d="m104.396 151.268 70.837 4.862 5.602-12.094-60.739-2.385-15.7 9.617Z" fill="#fff"/><path d="M139.255 51.15c11.756 0 21.286-9.545 21.286-21.319 0-11.773-9.53-21.318-21.286-21.318-11.757 0-21.287 9.545-21.287 21.318 0 11.774 9.53 21.318 21.287 21.318Z" fill="#FFB6B6"/><path d="m146.111 31.21-.135.023c-1.108.184-7.81 1.22-14.566-1.358-2.862-1.092-1.886-1.364-8.26-5.16-7.474-4.45-9.392-4.42-9.948-6.495-1.111-4.144 4.823-10.658 8.75-10.23 1.034.114 2.142.731 3.864.312.378-.092 2.035-.494 2.843-1.868.72-1.225.11-2.108.4-3.113.76-2.637 7.1-3.953 12.658-3.023 3.196.534 5.683 1.995 10.525 4.893 8.428 5.045 12.642 7.568 13.589 11.432.898 3.663-1.257 5.242.31 9.163 1.459 3.651 3.777 3.407 4.574 6.36 1.284 4.754-3.479 9.97-5.463 12.143-2.176 2.383-4.256 3.69-7.018 5.426-3.467 2.179-5.2 3.268-7.284 3.157-3.778-.2-7.537-3.63-7.683-6.761-.055-1.174.434-1.525 1.644-5.56.504-1.68.853-3.068 1.066-3.958" fill="#05264E"/><path d="M160.7 145.427c1.37.054 2.412 1.283 2.488 2.615.078 1.381-.881 2.654-2.034 3.312-1.35.771-3.036.895-4.556.762-1.367-.119-2.855-.545-3.735-1.676-.741-.952-1.013-2.389-.383-3.469.624-1.071 1.952-1.367 3.063-.937a2.959 2.959 0 0 1 1.922 2.79c.008 1.403-.801 2.699-1.936 3.474-1.224.836-2.765 1.105-4.222 1.102a11.955 11.955 0 0 1-4.628-.957c-1.369-.581-2.736-1.418-3.714-2.555-.917-1.067-1.466-2.546-.957-3.93.417-1.134 1.472-1.83 2.681-1.734 1.106.088 2.225.731 2.716 1.755.554 1.155.305 2.54-.4 3.573-.814 1.192-2.101 1.862-3.53 1.959-1.52.103-3.026-.438-4.277-1.275-1.159-.774-2.177-1.766-3.42-2.41-.599-.311-1.25-.508-1.928-.507-.862.001-1.692.285-2.531.45-.711.139-1.444.22-2.146-.007-.601-.195-1.163-.552-1.541-1.064-.358-.484-.483-1.091-.281-1.666.159-.451.881-.257.721.199-.371 1.051.901 1.824 1.791 1.92.675.074 1.372-.122 2.023-.274.679-.159 1.373-.322 2.075-.305 2.488.061 4.132 2.191 6.137 3.346 2.108 1.214 5.196 1.299 6.487-1.114.469-.877.566-2.042-.079-2.861-.536-.682-1.49-1.091-2.354-.958-1.085.166-1.625 1.201-1.586 2.23.048 1.259.925 2.282 1.86 3.037 2.08 1.679 4.84 2.534 7.501 2.384 1.249-.071 2.576-.396 3.546-1.229.838-.719 1.41-1.889 1.208-3.01a2.22 2.22 0 0 0-1.967-1.803c-1.004-.1-1.789.614-1.834 1.618-.05 1.13.62 2.073 1.591 2.587 1.1.583 2.433.655 3.652.592 1.294-.068 2.643-.41 3.549-1.396.772-.842 1.065-2.091.353-3.066-.314-.43-.786-.732-1.325-.754-.479-.019-.481-.767 0-.748Z" fill="#3C65F5"/><path d="m126.657 144.626.381-2.359 21.132-40.45a1.37 1.37 0 1 1 2.427 1.272l-21.123 40.432-1.727 1.676a.638.638 0 0 1-.75.108.641.641 0 0 1-.34-.679Z" fill="#3F3D56"/><path d="M141.062 118.89a15.188 15.188 0 0 1 6.538 2.96l.108.023.022-.107 23.031 3.613-1.668-30.68 17.455-9.575-4.126 51.86a6.124 6.124 0 0 1-7.616 4.292l-29.318-8.446.073-.361-.103-.027a15.18 15.18 0 0 1-7.175.179c-5.95-1.206-10.151-5.258-9.385-9.05.767-3.792 6.212-5.888 12.164-4.681Z" fill="#FFB6B6"/><path d="m156.808 70.85 19.67-5.486s10.333 7.606 11.578 15.835c.148.978.559 46.566.124 47.751-3.217 8.782-20.914-5.236-20.914-5.236L156.808 70.85Z" fill="#3C65F5"/><path d="m71.49 152.786-2.04-1.75a2.191 2.191 0 0 0-1.067-.5l-45.436-7.584a2.394 2.394 0 0 1-2-1.957 2.398 2.398 0 0 1 1.144-2.556l16.21-9.74a2.43 2.43 0 0 1 1.796-.288l57.609 13.034c1.12.254 1.867 1.16 1.904 2.309.036 1.15-.652 2.102-1.753 2.427l-24.088 7.095a2.434 2.434 0 0 1-2.28-.49Z" fill="#3F3D56"/><path d="M49.609 96.222a15.194 15.194 0 0 1 5.842 4.171l.101.044.042-.101 21.898 8.01 23.381-37.913 12.925 8.023-27.11 43.536a6.12 6.12 0 0 1-8.3 2.735l-27.132-13.97.142-.341-.095-.047a15.169 15.169 0 0 1-7.075-1.215c-5.604-2.336-8.943-7.126-7.457-10.698 1.485-3.572 7.232-4.572 12.838-2.234Z" fill="#FFB6B6"/><path d="M125.954 77.278 115.612 61.79s-12.306 2.44-17.375 9.035c-.634.824-22.4 32.438-22.54 33.818-.981 9.658 24.034 14.183 24.034 14.183l26.223-41.548Z" fill="#3C65F5"/><path d="m70.364 153.251-52.083-7.209a4.449 4.449 0 0 1-3.666-3.187l-11.962-41.93a4.4 4.4 0 0 1 .83-4.037 4.387 4.387 0 0 1 3.784-1.624L59.74 99.29a4.445 4.445 0 0 1 3.965 3.331l11.572 45.113a4.45 4.45 0 0 1-4.914 5.517Z" fill="#3F3D56"/><path d="M58.755 67.368c.304.335 1.409-.007 3.606-.704 1.67-.53 1.927-.722 2.086-.86.559-.487.705-.998 1.258-3.255.993-4.053 1.024-4.455 1.534-5.315.175-.296.619-1.002.51-1.09-.11-.09-.59.646-1.477.924-.865.271-1.254-.163-1.992-.052-.955.142-1.522 1.05-2.412 2.52-.788 1.3-.887 1.824-1.992 4.409-.313.732-.565 1.299-.758 1.747a456.238 456.238 0 0 0-6.452 6.154l.113-.174c.944-1.452 1.072-2.23 1.059-2.814-.022-.945-.473-1.665-1.373-3.066-.883-1.372-1.719-2.278-2.726-3.36-1.32-1.416-1.98-2.125-2.243-2.078-1.878.333-2.38 13.138-.018 15.428a4.157 4.157 0 0 0-.805.73c-2.022-2.249-5.487-4.761-9.325-5.07-2.366-.191-3.672.552-4.078.808-1.877 1.18-2.992 3.543-2.432 4.21.523.622 2.032-.792 4.99-.714 2.064.054 3.677.804 4.634 1.25 2.008.934 2.742 1.852 4.223 2.48a6.463 6.463 0 0 0-1.59 1.955l-.358.371c-1.527-.862-3.248-1.494-5.05-1.64-2.367-.19-3.673.553-4.079.809-1.265.795-2.181 2.127-2.475 3.115a6.4 6.4 0 0 0-.531.13c-.574-1.297-2.28-2.666-3.867-3.356-2.73-1.187-6.279-.872-6.658.257-.012.036-.015.071-.02.107.299-2.42.705-4.822 1.213-7.207.017.069.039.137.068.21.674 1.696 2.496 3.323 4.98 4.168 1.948.663 2.764.32 2.972.223.198-.091 1.054-.46 1.263-1.19.389-1.357-1.991-5.364-3.493-4.02-4.824 4.319-5.486.822-5.707.233a92.7 92.7 0 0 1 1.412-5.624l.026.035c1.054 1.28 3.082 2.181 5.466 2.221 1.87.032 2.482-.493 2.634-.634.146-.134.785-.69.764-1.382-.04-1.282-2.317-2.325-4.139-2.506-1.678-.167-3.486.347-4.382 1 .417-1.397.865-2.786 1.343-4.17 1.226.501 2.96.434 4.665-.33 1.406-.629 1.68-1.233 1.745-1.391.062-.151.344-.79.088-1.297-.476-.942-2.536-.926-3.958-.426a6.134 6.134 0 0 0-1.618.882c.848-2.268 1.771-4.52 2.765-6.755l-.996-.249a89.406 89.406 0 0 0-3.327 8.672 7.95 7.95 0 0 0-.805-2.513c-1.148-2.183-3.599-3.82-4.428-3.29-.166.107-.235.28-.298.486-.508 1.658-.126 3.95 1.212 6.056 1.05 1.652 1.86 1.884 2.07 1.936.178.045.865.235 1.43-.01a90.944 90.944 0 0 0-1.051 3.926c-.386-.958-1.145-1.979-1.948-2.684-1.85-1.627-4.725-2.279-5.309-1.486-.117.16-.12.346-.106.56.118 1.731 1.294 3.734 3.296 5.221 1.57 1.167 2.41 1.094 2.625 1.067.126-.015.51-.053.88-.22a93.913 93.913 0 0 0-.903 4.813c-.518-1.803-2.28-4.052-3.941-3.337-2.95 1.27-6.416-.68-6.797.172-.1.222-.017.451.078.7.764 1.998 2.874 3.933 5.771 4.961 2.274.807 3.236.417 3.48.308.163-.073.698-.296 1.096-.712a98.684 98.684 0 0 0-.66 6.243c-.615-1.345-2.347-2.761-3.969-3.491-2.844-1.281-6.563-1-6.976.176-.083.236-.018.463.08.718.784 2.05 2.95 4.037 5.924 5.093 2.334.828 3.321.428 3.572.315.183-.082.831-.353 1.244-.867a103.75 103.75 0 0 0-.12 2.904c-.007.276-.011.552-.017.829a.817.817 0 0 0-.082.167c-.08.237-.025.465.068.714l-.004.527c-.52-.473-1.141-1.183-1.888-2.195-.673-.913-1.313-.243-1.724.534-.644-.143-1.259-.054-1.742.398-3.24 3.032-6.876 1.423-6.927 2.327-.015.26.125.468.3.693 1.416 1.81 4.194 3.131 7.494 3.27 2.59.11 3.455-.595 3.671-.785.076-.066.247-.21.432-.412.148.118.293.226.437.324.057 1.736.16 3.47.31 5.199-.122.011-.24.032-.328.041-1.254.128-1.677-1.567-3.572-2.187-.63-.206-1.842-.43-2.481 0-.092.062-.406.295-.893.497-.288.12-.508.175-.596.199-.777.213-1.497.797-1.984 1.192-.916.743-1.373 1.115-1.588 1.789-.068.213-.258.81 0 1.392.122.275.404.684 1.488 1.093.645.243 2.524.953 4.764.199.51-.172.12-.11 2.084-1.093 1.544-.774 2.448-1.143 2.58-1.889.047-.262 0-.581.198-.695.111-.064.245-.033.378.015.13 1.391.292 2.78.489 4.166h-1.768a6.095 6.095 0 0 0-5.494 3.414l-6.611 13.358a6.179 6.179 0 0 0-.638 2.727v34.347c0 3.387 2.75 6.142 6.132 6.142h15.432c3.381 0 6.132-2.755 6.132-6.142V127.26c0-.771-.142-1.526-.424-2.244l-6.3-16.077a6.092 6.092 0 0 0-4.398-3.756c.634-.754 1.27-1.506 1.91-2.257.807.39 1.694.71 2.648.934 2.524.595 3.506.065 3.754-.081.237-.139 1.265-.704 1.44-1.646.018-.101.026-.203.024-.306 2.585 2.104 3.934 3.142 4.919 2.796.847-.297 1.33-1.272 1.607-2.146l.923.125c3.54.473 5.325.693 6.007-.147.945-1.162.048-3.404-.199-4.021-.537-1.343-1.363-2.16-1.876-2.657-.667-.645-2.566-2.484-5.557-2.73a6.214 6.214 0 0 0-1.828.113 7.938 7.938 0 0 0-.668-.553 6.236 6.236 0 0 0-1.4-.78c.749-.822 1.5-1.64 2.253-2.456.12.054.233.107.337.155 2.47 1.15 3.013 2.274 5.389 2.867 1.077.268 2.297.573 2.6.115.536-.812-1.742-4.155-5.261-6.417l.713-.754c.322.135.605.267.847.38 2.47 1.148 3.013 2.273 5.388 2.866 1.078.268 2.298.573 2.6.115.479-.725-1.283-3.465-4.168-5.654.792-.252 1.843-.532 3.204-.496 2.064.054 3.677.804 4.634 1.25 2.47 1.149 3.013 2.274 5.388 2.866 1.078.269 2.298.573 2.6.115.798-1.207-4.62-8.013-11.102-8.535a8.809 8.809 0 0 0-1.364-.007 8.328 8.328 0 0 0-.182-.288c2.193.07 6.475-.558 10.12 2.005 1.052.74 3.093 2.478 6.51 3.906 1.093.457 1.642.681 1.793.494.542-.671-3.96-6.194-10.294-8.914-2.511-1.079-4.063-1.18-5.167-1.017.17-.195.336-.395.496-.596a456.423 456.423 0 0 1 7.483-7.185c-.122.378-.117.579.016.726Zm-31.65 30.15c-2.787-.903-6.16-.417-7.04.61a71.479 71.479 0 0 1-.32-2.737c1.27.71 2.593.9 5.105 1.236 1.07.143 1.977.263 2.744.337.104.28.213.532.341.772l.046.082-.023.026a9.582 9.582 0 0 0-.854-.325Zm-7.402-12.235c.08-.264.08-.545.02-.835.087-1.05.195-2.097.323-3.14-.003.16.047.32.116.493.775 1.948 2.867 3.817 5.72 4.787.532.181.988.295 1.381.365a4.634 4.634 0 0 0-.393.868c-.972-.782-2.224-1.351-3.644-.748-.387.165-.616.765-.816 1.484-1.311.022-2.408.297-2.93.76.003-.193.002-.386.007-.58a76.76 76.76 0 0 1 .16-3.302c.021-.05.04-.1.056-.152Zm-.22 5.68c.057.116.12.232.183.347a4.67 4.67 0 0 1-.179-.14l-.003-.207Zm2.24 14.135a6.414 6.414 0 0 0-.462-.044c-.359-1.785-.69-3.57-.968-5.358.73 1.161 1.921 2.223 3.439 3.028-.674.79-1.341 1.581-2.008 2.374Zm11.758-13.43c-.95-.306-2.064-.452-3.607-.631a8.954 8.954 0 0 0-1.092-1.234c-.162-.156-.41-.466-.73-.829.831-.267 2.073-.743 3.826-.697 1.594.042 2.917.498 3.879.91-.762.823-1.52 1.65-2.276 2.481Zm5.384-5.811a14.169 14.169 0 0 0-3.011-1.389c.103 0 .205-.004.312-.001 1.322.035 2.457.355 3.355.697-.219.231-.438.461-.656.693Z" fill="#CCC"/></g><defs><clipPath id="a"><path fill="#fff" d="M0 0h213v170H0z"/></clipPath></defs></svg>