<svg version="1.1" id="Layer_1" xmlns="http://www.w3.org/2000/svg" x="0" y="0" viewBox="0 0 600 600" style="enable-background:new 0 0 600 600" xml:space="preserve"><style>.st4{fill:#fff}.st93{fill:#007cff}.st94{opacity:.2}.st98{fill:#dbe6f7}.st99{fill:#bbd4f2}.st101{fill:#4f60d9}.st102{fill:#707fff}.st103{fill:#1d38c8}.st106{fill:#1a2e35}.st107{fill:#ffc3bd}.st108,.st109{opacity:.5;fill:#fff}.st109{opacity:.1}</style><path class="st4" d="M2.41-.12h600v600h-600z"/><path class="st93" d="M514.64 59.18 425 79.61l-11.48 7.1z"/><path class="st94" d="m425 79.61-11.48 7.1 101.12-27.53"/><path class="st93" d="M514.64 59.18 425 79.61l8.44 6.21z"/><path class="st93" d="M468.39 76.84 423.42 75a4.103 4.103 0 0 1-3.93-4.27l.84-20.36a4.103 4.103 0 0 1 4.27-3.93l44.97 1.85c2.26.09 4.03 2.01 3.93 4.27l-.84 20.36a4.101 4.101 0 0 1-4.27 3.92z"/><path d="M468.39 76.84 423.42 75a4.103 4.103 0 0 1-3.93-4.27l.84-20.36a4.103 4.103 0 0 1 4.27-3.93l44.97 1.85c2.26.09 4.03 2.01 3.93 4.27l-.84 20.36a4.101 4.101 0 0 1-4.27 3.92z" style="opacity:.8;fill:#fff"/><path d="M446.3 67.08c-.13 0-.25-.04-.36-.11L422.7 50.93a.64.64 0 0 1 .73-1.05l22.91 15.81 24.13-13.88a.636.636 0 1 1 .64 1.1L446.61 67c-.1.05-.21.08-.31.08zm23.64 6.21c-.13 0-.25-.04-.36-.11l-13.32-9.26a.64.64 0 0 1 .73-1.05l13.32 9.26c.29.2.36.6.16.89a.65.65 0 0 1-.53.27zm-47.72-1.96c-.22 0-.43-.11-.55-.32-.18-.3-.07-.69.23-.87L435.94 62c.3-.18.69-.07.87.23.18.3.07.69-.23.87l-14.04 8.14c-.1.07-.21.09-.32.09z" style="opacity:.4;fill:#007cff"/><path class="st93" d="m514.64 59.18-76.85 15.71-4.35 10.93z"/><path class="st94" d="m514.64 59.18-76.85 15.71-4.35 10.93z"/><path class="st93" d="m514.64 59.18-76.85 15.71 24.2 8.77zM408.1 95.51a.64.64 0 0 1-.15-1.26c1.43-.34 2.83-.78 4.15-1.31.33-.13.7.03.83.35.13.33-.03.7-.35.83a29.25 29.25 0 0 1-4.34 1.37.59.59 0 0 1-.14.02zm-47.87 220.04c-.34 0-.62-.27-.64-.61-.02-.35.25-.65.61-.67 2.95-.14 5.95-.41 8.93-.81.35-.05.67.2.71.55.05.35-.2.67-.55.71-3.01.4-6.05.67-9.03.82-.01.01-.02.01-.03.01zm17.86-2.35a.63.63 0 0 1-.62-.5c-.07-.34.14-.68.49-.76 3-.65 5.91-1.42 8.66-2.28.33-.11.69.08.8.42.11.34-.08.69-.42.8-2.78.88-5.74 1.66-8.77 2.32h-.14zm17.14-5.5c-.24 0-.47-.14-.58-.37-.15-.32-.01-.7.31-.84 2.32-1.06 4.42-2.2 6.22-3.39.51-.33 1.01-.67 1.51-1.01.29-.2.69-.12.89.17.2.29.12.69-.17.89-.51.35-1.02.69-1.53 1.02-1.86 1.22-4.01 2.39-6.39 3.48-.08.03-.17.05-.26.05zm14.99-9.92c-.18 0-.36-.07-.48-.22-.23-.27-.2-.67.06-.9 2.36-2.05 4.47-4.18 6.26-6.33.23-.27.63-.31.9-.08.27.23.31.63.08.9-1.83 2.2-3.99 4.38-6.41 6.48a.61.61 0 0 1-.41.15zm11.33-13.89a.642.642 0 0 1-.57-.93c.41-.8.79-1.62 1.14-2.44.77-1.85 1.42-3.82 1.91-5.86.08-.34.43-.55.77-.47.34.08.55.43.47.77-.51 2.11-1.18 4.14-1.98 6.05-.36.85-.75 1.7-1.18 2.53a.61.61 0 0 1-.56.35zm4.42-17.35h-.04a.631.631 0 0 1-.59-.68c.12-1.74.17-3.57.17-5.6 0-1.11-.02-2.23-.05-3.35-.01-.35.27-.64.62-.65.35-.03.64.27.65.62.03 1.13.05 2.26.05 3.38 0 2.06-.06 3.92-.18 5.69-.02.33-.3.59-.63.59zm-.25-18.02c-.34 0-.62-.27-.64-.61-.12-2.59-.22-5.37-.22-8.15v-.89c0-.35.25-.66.64-.63.35 0 .63.29.63.64v.88c0 2.75.11 5.52.22 8.09a.63.63 0 0 1-.61.66c0 .01-.01.01-.02.01zm54.47-7.84c-1.16 0-2.29-.03-3.38-.08a.643.643 0 0 1-.61-.66c.02-.35.31-.62.66-.61 1.07.05 2.19.08 3.33.08 2 0 3.88-.09 5.59-.28.35-.04.66.21.7.56.04.35-.22.66-.56.7-1.76.19-3.69.29-5.73.29zm-12.35-.65h-.05c-2.99-.23-6.01-.5-9-.81a.646.646 0 0 1-.57-.7c.04-.35.35-.61.7-.57 2.97.31 5.99.58 8.96.81.35.03.61.33.59.68-.02.34-.3.59-.63.59zm26.71-1.82c-.24 0-.47-.14-.58-.37-.14-.32 0-.7.32-.84 2.86-1.29 5.04-3.14 6.48-5.5.18-.3.57-.39.88-.21.3.18.39.58.21.88-1.57 2.58-3.94 4.59-7.04 6-.09.02-.18.04-.27.04zm-44.65-.03c-.03 0-.05 0-.08-.01-2.97-.38-5.98-.81-8.94-1.27a.63.63 0 0 1-.53-.73c.05-.35.38-.58.73-.53 2.96.46 5.95.89 8.91 1.27.35.05.6.36.55.71-.05.33-.32.56-.64.56zm-17.81-2.77c-.04 0-.08 0-.11-.01-2.95-.54-5.93-1.12-8.86-1.73a.63.63 0 0 1-.49-.75c.07-.34.41-.56.75-.49 2.93.61 5.9 1.19 8.83 1.73.35.06.58.39.51.74-.06.29-.33.51-.63.51zm-17.65-3.69c-.05 0-.1-.01-.15-.02-2.92-.69-5.86-1.42-8.76-2.19a.637.637 0 1 1 .33-1.23c2.89.76 5.83 1.49 8.73 2.18a.64.64 0 0 1-.15 1.26zm11.69-1.19c-.03 0-.06 0-.09-.01a.64.64 0 0 1-.54-.72c.47-3.15 1.22-6.13 2.23-8.86.12-.33.49-.5.82-.38.33.12.5.49.38.82-.98 2.65-1.7 5.54-2.16 8.6-.05.32-.33.55-.64.55zm-29.12-3.4c-.06 0-.12-.01-.18-.03-2.88-.84-5.78-1.73-8.64-2.64a.64.64 0 0 1-.41-.8c.11-.34.47-.52.8-.41 2.84.91 5.74 1.8 8.61 2.63a.639.639 0 0 1-.18 1.25zm106.12-3.29c-.3 0-.57-.21-.62-.52-.48-2.47-2-4.88-4.51-7.14a.644.644 0 0 1-.05-.9c.24-.26.64-.28.9-.05 2.72 2.45 4.38 5.09 4.91 7.85.07.35-.16.68-.5.75-.05.01-.09.01-.13.01zm-123.29-2.22c-.07 0-.14-.01-.21-.04-2.9-1.03-5.75-2.1-8.47-3.17a.638.638 0 0 1-.36-.83c.13-.33.5-.49.83-.36 2.7 1.07 5.54 2.13 8.42 3.16.33.12.51.48.39.81-.09.26-.34.43-.6.43zm-16.76-6.67c-.09 0-.18-.02-.26-.06-2.8-1.25-5.55-2.56-8.17-3.89a.642.642 0 0 1-.28-.86c.16-.31.54-.44.86-.28 2.6 1.32 5.33 2.62 8.11 3.86.32.14.47.52.32.84-.1.25-.33.39-.58.39zm69.45-1.1c-.13 0-.26-.04-.38-.12a.638.638 0 0 1-.13-.89c1.74-2.35 3.77-4.32 6.06-5.85.22-.15.44-.29.66-.43.3-.19.69-.1.88.2.19.3.1.69-.2.88-.21.13-.42.27-.62.4-2.16 1.45-4.1 3.32-5.74 5.55-.14.17-.34.26-.53.26zm58.43-2.55c-.1 0-.21-.02-.3-.08-1.07-.58-2.12-1.11-3.11-1.6-1.62-.8-3.29-1.54-4.98-2.2a.638.638 0 0 1-.36-.83c.13-.33.5-.49.83-.36 1.72.67 3.43 1.43 5.08 2.24 1.01.5 2.07 1.04 3.15 1.62.31.17.42.55.26.86-.13.23-.35.35-.57.35zm-143.94-4.52a.62.62 0 0 1-.32-.09c-2.66-1.54-5.25-3.16-7.68-4.79a.63.63 0 0 1-.17-.88c.2-.29.59-.37.88-.17 2.42 1.62 4.98 3.22 7.61 4.75.3.18.41.57.23.87-.12.2-.33.31-.55.31zm127.19-2c-.05 0-.1-.01-.15-.02-2.89-.69-5.85-1.17-8.8-1.44a.638.638 0 0 1-.58-.69c.03-.35.35-.61.69-.58 3.01.28 6.03.77 8.98 1.47.34.08.55.42.47.77-.06.29-.33.49-.61.49zm-26.82-.41a.64.64 0 0 1-.15-1.26c2.09-.5 4.31-.86 6.8-1.08.74-.07 1.49-.12 2.24-.16a.637.637 0 0 1 .07 1.27c-.73.04-1.46.09-2.19.16-2.43.22-4.59.56-6.62 1.05-.05.01-.1.02-.15.02zm-115.31-7.65c-.14 0-.28-.04-.39-.14-2.42-1.89-4.73-3.88-6.89-5.89a.634.634 0 0 1-.03-.9c.24-.26.64-.27.9-.03 2.13 1.99 4.43 3.94 6.81 5.82.28.22.32.62.11.89-.14.17-.33.25-.51.25zm-13.15-12.3a.62.62 0 0 1-.48-.22c-2.02-2.29-3.9-4.7-5.6-7.16a.64.64 0 0 1 1.05-.73c1.67 2.42 3.52 4.78 5.5 7.04.23.26.21.67-.06.9-.11.12-.26.17-.41.17zm-10.2-14.82c-.23 0-.45-.13-.57-.34a64.498 64.498 0 0 1-3.6-8.35.636.636 0 1 1 1.2-.42c.96 2.75 2.15 5.5 3.53 8.19.16.31.04.7-.27.86-.09.04-.19.06-.29.06zm-5.86-16.98c-.3 0-.57-.22-.63-.52-.12-.68-.23-1.36-.33-2.04-.31-2.22-.47-4.5-.47-6.78v-.26c0-.35.29-.65.64-.63.35 0 .64.29.63.64v.26c0 2.22.15 4.44.46 6.6.09.67.2 1.33.32 2 .06.35-.17.68-.51.74-.04-.01-.07-.01-.11-.01zm.06-17.93c-.04 0-.08 0-.12-.01a.635.635 0 0 1-.51-.74c.55-2.98 1.36-5.94 2.41-8.79.12-.33.49-.5.82-.38.33.12.5.49.38.82a52.164 52.164 0 0 0-2.36 8.58c-.05.31-.31.52-.62.52zm6.22-16.83a.638.638 0 0 1-.55-.96c1.55-2.66 3.32-5.16 5.28-7.43.23-.27.63-.3.9-.07.27.23.3.63.07.9a49.318 49.318 0 0 0-5.15 7.24c-.12.21-.33.32-.55.32zm11.73-13.55c-.19 0-.38-.08-.5-.25a.626.626 0 0 1 .11-.89c2.34-1.82 4.93-3.46 7.71-4.87.31-.16.7-.04.86.28.16.31.03.7-.28.86-2.7 1.38-5.23 2.97-7.51 4.74-.12.08-.26.13-.39.13zm78.27-7.91c-2.71-.04-5.59-.29-9.07-.8a.634.634 0 0 1-.54-.72c.05-.35.37-.59.72-.54 3.42.5 6.25.75 8.89.78.35 0 .63.29.63.65 0 .35-.28.63-.63.63zm-62.34-.32c-.27 0-.52-.17-.61-.44-.11-.33.07-.69.41-.8 2.72-.89 5.68-1.66 8.79-2.28.35-.07.68.15.75.5.07.34-.15.68-.5.75a76.72 76.72 0 0 0-8.65 2.24c-.06.02-.12.03-.19.03zm44.49-2.01c-.04 0-.08 0-.12-.01-2.73-.51-5.83-1.09-8.86-1.51a.634.634 0 0 1-.54-.72c.05-.35.37-.59.72-.54 3.06.43 6.17 1.01 8.91 1.52a.635.635 0 0 1-.11 1.26zm-26.86-1.64a.637.637 0 0 1-.07-1.27c1.62-.19 3.35-.35 5.13-.49 1.13-.09 2.32-.14 3.52-.14h.42c.35 0 .63.29.63.64 0 .35-.34.63-.64.63h-.41c-1.17 0-2.32.04-3.42.13-1.77.14-3.48.31-5.08.49-.03.01-.06.01-.08.01zm-3.35 223.16h-.03c-1.52-.07-3.02-.17-4.48-.31a.633.633 0 0 1-.57-.7c.03-.35.34-.61.7-.57 1.43.14 2.92.24 4.41.31.35.02.62.31.61.66-.02.34-.3.61-.64.61z"/><path class="st4" d="M408.1 95.51a.64.64 0 0 1-.15-1.26c1.43-.34 2.83-.78 4.15-1.31.33-.13.7.03.83.35.13.33-.03.7-.35.83a29.25 29.25 0 0 1-4.34 1.37.59.59 0 0 1-.14.02zm-47.87 220.04c-.34 0-.62-.27-.64-.61-.02-.35.25-.65.61-.67 2.95-.14 5.95-.41 8.93-.81.35-.05.67.2.71.55.05.35-.2.67-.55.71-3.01.4-6.05.67-9.03.82-.01.01-.02.01-.03.01zm17.86-2.35a.63.63 0 0 1-.62-.5c-.07-.34.14-.68.49-.76 3-.65 5.91-1.42 8.66-2.28.33-.11.69.08.8.42.11.34-.08.69-.42.8-2.78.88-5.74 1.66-8.77 2.32h-.14zm17.14-5.5c-.24 0-.47-.14-.58-.37-.15-.32-.01-.7.31-.84 2.32-1.06 4.42-2.2 6.22-3.39.51-.33 1.01-.67 1.51-1.01.29-.2.69-.12.89.17.2.29.12.69-.17.89-.51.35-1.02.69-1.53 1.02-1.86 1.22-4.01 2.39-6.39 3.48-.08.03-.17.05-.26.05zm14.99-9.92c-.18 0-.36-.07-.48-.22-.23-.27-.2-.67.06-.9 2.36-2.05 4.47-4.18 6.26-6.33.23-.27.63-.31.9-.08.27.23.31.63.08.9-1.83 2.2-3.99 4.38-6.41 6.48a.61.61 0 0 1-.41.15zm11.33-13.89a.642.642 0 0 1-.57-.93c.41-.8.79-1.62 1.14-2.44.77-1.85 1.42-3.82 1.91-5.86.08-.34.43-.55.77-.47.34.08.55.43.47.77-.51 2.11-1.18 4.14-1.98 6.05-.36.85-.75 1.7-1.18 2.53a.61.61 0 0 1-.56.35zm4.42-17.35h-.04a.631.631 0 0 1-.59-.68c.12-1.74.17-3.57.17-5.6 0-1.11-.02-2.23-.05-3.35-.01-.35.27-.64.62-.65.35-.03.64.27.65.62.03 1.13.05 2.26.05 3.38 0 2.06-.06 3.92-.18 5.69-.02.33-.3.59-.63.59zm-.25-18.02c-.34 0-.62-.27-.64-.61-.12-2.59-.22-5.37-.22-8.15v-.89c0-.35.25-.66.64-.63.35 0 .63.29.63.64v.88c0 2.75.11 5.52.22 8.09a.63.63 0 0 1-.61.66c0 .01-.01.01-.02.01zm54.47-7.84c-1.16 0-2.29-.03-3.38-.08a.643.643 0 0 1-.61-.66c.02-.35.31-.62.66-.61 1.07.05 2.19.08 3.33.08 2 0 3.88-.09 5.59-.28.35-.04.66.21.7.56.04.35-.22.66-.56.7-1.76.19-3.69.29-5.73.29zm-12.35-.65h-.05c-2.99-.23-6.01-.5-9-.81a.646.646 0 0 1-.57-.7c.04-.35.35-.61.7-.57 2.97.31 5.99.58 8.96.81.35.03.61.33.59.68-.02.34-.3.59-.63.59zm26.71-1.82c-.24 0-.47-.14-.58-.37-.14-.32 0-.7.32-.84 2.86-1.29 5.04-3.14 6.48-5.5.18-.3.57-.39.88-.21.3.18.39.58.21.88-1.57 2.58-3.94 4.59-7.04 6-.09.02-.18.04-.27.04zm-44.65-.03c-.03 0-.05 0-.08-.01-2.97-.38-5.98-.81-8.94-1.27a.63.63 0 0 1-.53-.73c.05-.35.38-.58.73-.53 2.96.46 5.95.89 8.91 1.27.35.05.6.36.55.71-.05.33-.32.56-.64.56zm-17.81-2.77c-.04 0-.08 0-.11-.01-2.95-.54-5.93-1.12-8.86-1.73a.63.63 0 0 1-.49-.75c.07-.34.41-.56.75-.49 2.93.61 5.9 1.19 8.83 1.73.35.06.58.39.51.74-.06.29-.33.51-.63.51zm-17.65-3.69c-.05 0-.1-.01-.15-.02-2.92-.69-5.86-1.42-8.76-2.19a.637.637 0 1 1 .33-1.23c2.89.76 5.83 1.49 8.73 2.18a.64.64 0 0 1-.15 1.26zm11.69-1.19c-.03 0-.06 0-.09-.01a.64.64 0 0 1-.54-.72c.47-3.15 1.22-6.13 2.23-8.86.12-.33.49-.5.82-.38.33.12.5.49.38.82-.98 2.65-1.7 5.54-2.16 8.6-.05.32-.33.55-.64.55zm-29.12-3.4c-.06 0-.12-.01-.18-.03-2.88-.84-5.78-1.73-8.64-2.64a.64.64 0 0 1-.41-.8c.11-.34.47-.52.8-.41 2.84.91 5.74 1.8 8.61 2.63a.639.639 0 0 1-.18 1.25zm106.12-3.29c-.3 0-.57-.21-.62-.52-.48-2.47-2-4.88-4.51-7.14a.644.644 0 0 1-.05-.9c.24-.26.64-.28.9-.05 2.72 2.45 4.38 5.09 4.91 7.85.07.35-.16.68-.5.75-.05.01-.09.01-.13.01zm-123.29-2.22c-.07 0-.14-.01-.21-.04-2.9-1.03-5.75-2.1-8.47-3.17a.638.638 0 0 1-.36-.83c.13-.33.5-.49.83-.36 2.7 1.07 5.54 2.13 8.42 3.16.33.12.51.48.39.81-.09.26-.34.43-.6.43zm-16.76-6.67c-.09 0-.18-.02-.26-.06-2.8-1.25-5.55-2.56-8.17-3.89a.642.642 0 0 1-.28-.86c.16-.31.54-.44.86-.28 2.6 1.32 5.33 2.62 8.11 3.86.32.14.47.52.32.84-.1.25-.33.39-.58.39zm69.45-1.1c-.13 0-.26-.04-.38-.12a.638.638 0 0 1-.13-.89c1.74-2.35 3.77-4.32 6.06-5.85.22-.15.44-.29.66-.43.3-.19.69-.1.88.2.19.3.1.69-.2.88-.21.13-.42.27-.62.4-2.16 1.45-4.1 3.32-5.74 5.55-.14.17-.34.26-.53.26zm58.43-2.55c-.1 0-.21-.02-.3-.08-1.07-.58-2.12-1.11-3.11-1.6-1.62-.8-3.29-1.54-4.98-2.2a.638.638 0 0 1-.36-.83c.13-.33.5-.49.83-.36 1.72.67 3.43 1.43 5.08 2.24 1.01.5 2.07 1.04 3.15 1.62.31.17.42.55.26.86-.13.23-.35.35-.57.35zm-143.94-4.52a.62.62 0 0 1-.32-.09c-2.66-1.54-5.25-3.16-7.68-4.79a.63.63 0 0 1-.17-.88c.2-.29.59-.37.88-.17 2.42 1.62 4.98 3.22 7.61 4.75.3.18.41.57.23.87-.12.2-.33.31-.55.31zm127.19-2c-.05 0-.1-.01-.15-.02-2.89-.69-5.85-1.17-8.8-1.44a.638.638 0 0 1-.58-.69c.03-.35.35-.61.69-.58 3.01.28 6.03.77 8.98 1.47.34.08.55.42.47.77-.06.29-.33.49-.61.49zm-26.82-.41a.64.64 0 0 1-.15-1.26c2.09-.5 4.31-.86 6.8-1.08.74-.07 1.49-.12 2.24-.16a.637.637 0 0 1 .07 1.27c-.73.04-1.46.09-2.19.16-2.43.22-4.59.56-6.62 1.05-.05.01-.1.02-.15.02zm-115.31-7.65c-.14 0-.28-.04-.39-.14-2.42-1.89-4.73-3.88-6.89-5.89a.634.634 0 0 1-.03-.9c.24-.26.64-.27.9-.03 2.13 1.99 4.43 3.94 6.81 5.82.28.22.32.62.11.89-.14.17-.33.25-.51.25zm-13.15-12.3a.62.62 0 0 1-.48-.22c-2.02-2.29-3.9-4.7-5.6-7.16a.64.64 0 0 1 1.05-.73c1.67 2.42 3.52 4.78 5.5 7.04.23.26.21.67-.06.9-.11.12-.26.17-.41.17zm-10.2-14.82c-.23 0-.45-.13-.57-.34a64.498 64.498 0 0 1-3.6-8.35.636.636 0 1 1 1.2-.42c.96 2.75 2.15 5.5 3.53 8.19.16.31.04.7-.27.86-.09.04-.19.06-.29.06zm-5.86-16.98c-.3 0-.57-.22-.63-.52-.12-.68-.23-1.36-.33-2.04-.31-2.22-.47-4.5-.47-6.78v-.26c0-.35.29-.65.64-.63.35 0 .64.29.63.64v.26c0 2.22.15 4.44.46 6.6.09.67.2 1.33.32 2 .06.35-.17.68-.51.74-.04-.01-.07-.01-.11-.01zm.06-17.93c-.04 0-.08 0-.12-.01a.635.635 0 0 1-.51-.74c.55-2.98 1.36-5.94 2.41-8.79.12-.33.49-.5.82-.38.33.12.5.49.38.82a52.164 52.164 0 0 0-2.36 8.58c-.05.31-.31.52-.62.52zm6.22-16.83a.638.638 0 0 1-.55-.96c1.55-2.66 3.32-5.16 5.28-7.43.23-.27.63-.3.9-.07.27.23.3.63.07.9a49.318 49.318 0 0 0-5.15 7.24c-.12.21-.33.32-.55.32zm11.73-13.55c-.19 0-.38-.08-.5-.25a.626.626 0 0 1 .11-.89c2.34-1.82 4.93-3.46 7.71-4.87.31-.16.7-.04.86.28.16.31.03.7-.28.86-2.7 1.38-5.23 2.97-7.51 4.74-.12.08-.26.13-.39.13zm78.27-7.91c-2.71-.04-5.59-.29-9.07-.8a.634.634 0 0 1-.54-.72c.05-.35.37-.59.72-.54 3.42.5 6.25.75 8.89.78.35 0 .63.29.63.65 0 .35-.28.63-.63.63zm-62.34-.32c-.27 0-.52-.17-.61-.44-.11-.33.07-.69.41-.8 2.72-.89 5.68-1.66 8.79-2.28.35-.07.68.15.75.5.07.34-.15.68-.5.75a76.72 76.72 0 0 0-8.65 2.24c-.06.02-.12.03-.19.03zm44.49-2.01c-.04 0-.08 0-.12-.01-2.73-.51-5.83-1.09-8.86-1.51a.634.634 0 0 1-.54-.72c.05-.35.37-.59.72-.54 3.06.43 6.17 1.01 8.91 1.52a.635.635 0 0 1-.11 1.26zm-26.86-1.64a.637.637 0 0 1-.07-1.27c1.62-.19 3.35-.35 5.13-.49 1.13-.09 2.32-.14 3.52-.14h.42c.35 0 .63.29.63.64 0 .35-.34.63-.64.63h-.41c-1.17 0-2.32.04-3.42.13-1.77.14-3.48.31-5.08.49-.03.01-.06.01-.08.01zm-3.35 223.16h-.03c-1.52-.07-3.02-.17-4.48-.31a.633.633 0 0 1-.57-.7c.03-.35.34-.61.7-.57 1.43.14 2.92.24 4.41.31.35.02.62.31.61.66-.02.34-.3.61-.64.61z" style="opacity:.6"/><path class="st98" d="M139.86 61.96c0 1.24-.5 2.36-1.32 3.18a4.45 4.45 0 0 1-3.17 1.32H39.11c-2.47 0-4.5-2.03-4.5-4.5 0-1.24.5-2.36 1.32-3.18a4.45 4.45 0 0 1 3.17-1.32h4.55c1.8-4.18 5.95-7.09 10.78-7.09 3.25 0 6.19 1.32 8.32 3.46 2.84-4.81 8.07-8.04 14.05-8.04 1.65 0 3.23.25 4.73.7 3.13-5.89 9.32-9.9 16.46-9.9 8.57 0 15.78 5.79 17.95 13.66a11.7 11.7 0 0 1 5.25-1.24c5.34 0 9.85 3.57 11.27 8.45h2.9c2.48 0 4.5 2.02 4.5 4.5zm192.52 11.31c0 1.24-.5 2.36-1.32 3.18a4.45 4.45 0 0 1-3.17 1.32h-96.26c-2.47 0-4.5-2.03-4.5-4.5 0-1.24.5-2.36 1.32-3.18a4.45 4.45 0 0 1 3.17-1.32h4.55c1.8-4.18 5.95-7.09 10.78-7.09 3.25 0 6.19 1.32 8.32 3.46 2.84-4.81 8.07-8.04 14.05-8.04 1.65 0 3.23.25 4.73.7 3.13-5.89 9.32-9.9 16.46-9.9 8.57 0 15.78 5.79 17.95 13.66a11.7 11.7 0 0 1 5.25-1.24c5.34 0 9.85 3.57 11.27 8.45h2.9c2.47-.01 4.5 2.02 4.5 4.5zm124.34 412.17c14.71-6.13 27.5-14.64 20.4-19.74-7.11-5.11-28.85 9.96-38.91 27.7l-4.87 5.22c7.56-12.8 9.77-31.3 3.23-34.82-6.5-3.49-6.85 8.96-5.28 20.38 1.2 8.7-.01 14.66-.93 17.63l-22.98 24.65c11.91-20.31 15.37-49.51 5.03-55.07-10.31-5.54-10.87 14.21-8.38 32.34 1.89 13.7.01 23.13-1.44 27.87l-4.58 4.91c.73.93 1.46 1.85 2.2 2.77l27.35-29.32c3.27-.83 8-1.51 14.16-1.1 11.51.77 23.9-.45 19.96-6.69-3.42-5.41-17.49-3.56-29.16 2.46l9.46-10.14c3.46-2.63 8.39-6.4 14.74-9.05z"/><path class="st99" d="M115.33 391.52c19.27 12.78 12.15 33.75 29.5 38.55 17.34 4.8 27.11 19.61 19.42 33.51-7.7 13.9-14.13 23.7.91 35.71 15.05 12.01 17 36.24.88 40.67-4.01 1.11-8.36 2.3-12.63 3.46-1.16.32-2.33.63-3.47.94-.26.07-.53.15-.79.22-17.15 4.67-35.3-4.14-41.74-20.71-2.6-6.71-3.02-13.91 1.38-20.58 13.77-20.91-11.86-19.69-17.46-36.36-6.45-19.2 10.43-28.83 4.13-42.57-8.77-19.11.59-45.62 19.87-32.84z"/><path d="m116.12 421.72 37.28 121.69c-1.16.32-2.33.63-3.47.94l-37.25-121.58a1.79 1.79 0 0 1 1.19-2.24c.96-.29 1.96.25 2.25 1.19z" style="fill:#a4c8f2"/><path class="st98" d="M25.88 404.21c21.26 3.78 22.95 24.38 39.6 22.05 16.64-2.34 30.51 6.71 29.09 21.47-1.42 14.77-3.29 25.56 14.06 30.25 17.35 4.69 28.04 24.71 15.87 34.5-3.03 2.44-6.31 5.08-9.53 7.65-.88.7-1.76 1.41-2.62 2.1l-.6.48c-12.95 10.38-31.78 9.58-43.45-2.22-4.72-4.78-7.76-10.79-6.47-18.14 4.02-23.03-17.48-12.45-28.47-24.64-12.67-14.05-1.79-28.57-12.29-37.99-14.61-13.09-16.45-39.28 4.81-35.51z"/><path class="st99" d="m37.79 429.79 77.18 90.35c-.88.7-1.76 1.41-2.62 2.1l-77.11-90.27c-.6-.7-.52-1.76.18-2.36a1.67 1.67 0 0 1 2.37.18z"/><path class="st101" d="M555.81 394.04c3.56 0 6.46 2.9 6.46 6.46s-2.9 6.46-6.46 6.46-6.46-2.9-6.46-6.46 2.9-6.46 6.46-6.46zm0 2.03c-2.44 0-4.43 1.99-4.43 4.43 0 2.44 1.99 4.43 4.43 4.43s4.43-1.99 4.43-4.43c.01-2.44-1.98-4.43-4.43-4.43z"/><path class="st102" d="M549.24 361.21c3.56 0 6.46 2.9 6.46 6.46s-2.9 6.46-6.46 6.46a6.47 6.47 0 0 1-6.46-6.46c0-3.56 2.9-6.46 6.46-6.46zm0 2.02c-2.44 0-4.43 1.99-4.43 4.43 0 2.44 1.99 4.43 4.43 4.43 2.44 0 4.43-1.99 4.43-4.43 0-2.44-1.99-4.43-4.43-4.43z"/><path class="st103" d="M529.59 352.11c0 .56.45 1.01 1.01 1.01h4.47c.56 0 1.01-.45 1.01-1.01s-.45-1.01-1.01-1.01h-4.47c-.56 0-1.01.45-1.01 1.01zm-7.82 0c0 .56.45 1.01 1.01 1.01h4.47c.56 0 1.01-.45 1.01-1.01s-.45-1.01-1.01-1.01h-4.47c-.56 0-1.01.45-1.01 1.01zm6.14-6.27v4.01c0 .56.45 1.01 1.01 1.01s1.01-.45 1.01-1.01v-4.01c0-.56-.45-1.01-1.01-1.01-.55-.01-1.01.45-1.01 1.01zm0 8.53v4.01c0 .56.45 1.01 1.01 1.01s1.01-.45 1.01-1.01v-4.01c0-.56-.45-1.01-1.01-1.01-.55-.01-1.01.45-1.01 1.01z"/><path class="st102" d="M536.88 386.61c0 .56.45 1.01 1.01 1.01h4.47c.56 0 1.01-.45 1.01-1.01s-.45-1.01-1.01-1.01h-4.47c-.56 0-1.01.45-1.01 1.01zm-7.82 0c0 .56.45 1.01 1.01 1.01h4.47c.56 0 1.01-.45 1.01-1.01s-.45-1.01-1.01-1.01h-4.47c-.56 0-1.01.45-1.01 1.01zm6.14-6.27v4.01c0 .56.45 1.01 1.01 1.01s1.01-.45 1.01-1.01v-4.01c0-.56-.45-1.01-1.01-1.01s-1.01.45-1.01 1.01zm0 8.53v4.01c0 .56.45 1.01 1.01 1.01s1.01-.45 1.01-1.01v-4.01c0-.56-.45-1.01-1.01-1.01s-1.01.45-1.01 1.01z"/><path class="st101" d="M66.07 237.72c0 3.56-2.9 6.46-6.46 6.46a6.47 6.47 0 0 1-6.46-6.46c0-3.56 2.9-6.46 6.46-6.46s6.46 2.9 6.46 6.46zm-10.89 0c0 2.44 1.99 4.43 4.43 4.43s4.43-1.99 4.43-4.43c0-2.44-1.99-4.43-4.43-4.43s-4.43 1.99-4.43 4.43z"/><path class="st103" d="M72.64 204.89c0 3.56-2.9 6.46-6.46 6.46a6.47 6.47 0 0 1-6.46-6.46c0-3.56 2.9-6.46 6.46-6.46s6.46 2.9 6.46 6.46zm-10.89 0c0 2.44 1.99 4.43 4.43 4.43 2.44 0 4.43-1.99 4.43-4.43 0-2.44-1.99-4.43-4.43-4.43-2.44 0-4.43 1.99-4.43 4.43z"/><path class="st101" d="M85.83 189.33c0 .56-.45 1.01-1.01 1.01h-4.47c-.56 0-1.01-.45-1.01-1.01s.45-1.01 1.01-1.01h4.47c.56 0 1.01.45 1.01 1.01zm7.82 0c0 .56-.45 1.01-1.01 1.01h-4.47c-.56 0-1.01-.45-1.01-1.01s.45-1.01 1.01-1.01h4.47c.56 0 1.01.45 1.01 1.01zm-6.14-6.27v4.01c0 .56-.45 1.01-1.01 1.01s-1.01-.45-1.01-1.01v-4.01c0-.56.45-1.01 1.01-1.01s1.01.45 1.01 1.01zm0 8.53v4.01c0 .56-.45 1.01-1.01 1.01s-1.01-.45-1.01-1.01v-4.01c0-.56.45-1.01 1.01-1.01s1.01.45 1.01 1.01z"/><path class="st102" d="M78.55 223.84c0 .56-.45 1.01-1.01 1.01h-4.47c-.56 0-1.01-.45-1.01-1.01s.45-1.01 1.01-1.01h4.47c.55-.01 1.01.45 1.01 1.01zm7.82 0c0 .56-.45 1.01-1.01 1.01h-4.47c-.56 0-1.01-.45-1.01-1.01s.45-1.01 1.01-1.01h4.47c.55-.01 1.01.45 1.01 1.01zm-6.15-6.28v4.01c0 .56-.45 1.01-1.01 1.01s-1.01-.45-1.01-1.01v-4.01c0-.56.45-1.01 1.01-1.01s1.01.45 1.01 1.01zm0 8.54v4.01c0 .56-.45 1.01-1.01 1.01s-1.01-.45-1.01-1.01v-4.01c0-.56.45-1.01 1.01-1.01a1 1 0 0 1 1.01 1.01z"/><path class="st101" d="M520.79 173.8v16.31c0 2.16 1.75 3.9 3.9 3.9h29.61l8.94 3.21c.92.33 1.8-.57 1.44-1.48l-3.38-8.73V173.8a3.9 3.9 0 0 0-3.91-3.9h-32.7c-2.15 0-3.9 1.75-3.9 3.9z"/><path class="st102" d="M546.51 182.42c0 1.56 1.26 2.82 2.82 2.82 1.56 0 2.82-1.26 2.82-2.82s-1.26-2.82-2.82-2.82c-1.55 0-2.82 1.26-2.82 2.82zm-8.94 0c0 1.56 1.26 2.82 2.82 2.82 1.56 0 2.82-1.26 2.82-2.82s-1.26-2.82-2.82-2.82c-1.55 0-2.82 1.26-2.82 2.82zm-8.94 0c0 1.56 1.26 2.82 2.82 2.82 1.56 0 2.82-1.26 2.82-2.82s-1.26-2.82-2.82-2.82c-1.55 0-2.82 1.26-2.82 2.82z" style="opacity:.5"/><ellipse class="st98" cx="300" cy="544.13" rx="261.5" ry="16.54"/><path class="st101" d="M519.34 515.34s-.96.94-2.94 1.09c-.6.05-1.28.02-2.07-.14-.84-.15-1.79-.45-2.84-.95 0 0 .46-19.43-7.4-32.82-7.86-13.38-18.26-31.87-9.94-41.35 8.32-9.48 21.73 3.7 26.12 25.89 4.39 22.19-.93 48.28-.93 48.28z"/><path class="st103" d="M516.4 516.43c-.6.05-1.28.02-2.07-.14 2.52-34.49-13.14-61.14-13.29-61.41-.3-.49-.14-1.13.35-1.43.49-.29 1.13-.13 1.43.36.16.27 16.15 27.45 13.58 62.62z"/><path class="st101" d="M546.29 483.98c-18.38 29.72-17.12 36.6-17.12 36.6l-2.41-.43-2.05-.36-2.93-.52c-1.63-13.18 8.5-68.91 26.55-68.91 18.37 0 4.22 23.5-2.04 33.62z"/><path class="st103" d="M545.59 466.88c-.17.29-15.57 27.75-18.84 53.27l-2.05-.36c3.36-25.92 18.9-53.63 19.07-53.93.28-.5.92-.67 1.42-.39.51.28.68.91.4 1.41z"/><path class="st101" d="m511.31 517.98-2.12.57-2.02.55-1.21.33c.08-.26-.85-2.54-13.78-19.82-5.34-7.14-19.58-26.35-6.53-29.58 11.98-2.96 26.01 37.99 25.66 47.95z"/><path class="st103" d="m509.2 518.55-2.02.55c-3.73-16.65-18.87-37.09-19.04-37.31-.34-.46-.24-1.11.21-1.46a1.05 1.05 0 0 1 1.46.21c.66.9 15.55 20.97 19.39 38.01z"/><path d="M536.93 561.95c0 3.33-41.12 3.33-41.12 0v-48.89c0-.51.41-.92.92-.92h39.29c.51 0 .92.41.92.92v48.89z" style="fill:#3b3e7d"/><path class="st106" d="M164.86 125.98c-8.6 1.91-18.6 13.97-8.72 26.29 9.88 12.32-6.67 6.93-9.24 28.48-2.57 21.55 17.06 17.92 10.9 32.05-6.16 14.13 36.61 36.52 63.31 19.55 26.7-16.97 29.19-53.5 20.85-66.4-8.34-12.91-20.53-13.72-15.01-27.55 5.52-13.83-.98-28.2-18.22-28.33-12.99-.1-5.2-9.19-23.09-9.11-14.9.07-28.09 10.54-20.78 25.02z"/><path class="st4" d="M212.71 144c-2.34 0-4.23 1.89-4.23 4.24 0 2.34 1.89 4.23 4.23 4.23a4.236 4.236 0 1 0 0-8.47zm0 7.48a3.24 3.24 0 0 1-3.24-3.24c0-1.8 1.45-3.26 3.24-3.26 1.8 0 3.26 1.45 3.26 3.26a3.256 3.256 0 0 1-3.26 3.24z"/><path class="st106" d="M248.49 185.35c-.02 0-.05 0-.07-.01a.365.365 0 0 1-.29-.43c1.3-6.77-3.97-13.33-9.55-20.27-6.52-8.1-13.9-17.29-11.3-28.23 2.22-9.33 1.23-17.13-2.79-21.95-3.29-3.95-8.42-5.77-15.24-5.42-6.25.32-8.11-1.37-10.07-3.16-2.12-1.94-4.56-4.14-13.53-4.08-.2 0-.36-.16-.36-.36 0-.2.16-.36.36-.37h.32c9.04 0 11.52 2.27 13.71 4.27 1.93 1.76 3.59 3.28 9.54 2.97 7.06-.36 12.39 1.54 15.83 5.68 4.17 5 5.21 13.02 2.94 22.58-2.52 10.59 4.44 19.24 11.16 27.6 5.69 7.08 11.07 13.76 9.7 20.87-.04.19-.19.31-.36.31z"/><path class="st107" d="m282.67 157.58-1.96 3.81a4.96 4.96 0 0 0 0 4.56l3.45 6.69a9.296 9.296 0 0 0 6.95 4.94l1.84.26c3.68-6.09 3.18-15.39 3.18-15.39l.15-2.67c.13-2.37-1.53-4.33-3.83-4.49l-5.28-.36c-1.83-.12-3.62.93-4.5 2.65z"/><path class="st93" d="M239.4 183.02c-.08-.06.08.16.15.27l.31.44.7.94c.49.64 1.03 1.26 1.58 1.89 1.11 1.25 2.28 2.48 3.51 3.65 2.46 2.35 5.18 4.44 8.01 6.3 5.66 3.74 11.98 6.29 18.55 7.33l1.24.17.62.09c.07.01-.11.01-.15.03-.33.03-.75.2-.88.33-.28.26.4-.13 1.04-1.08 1.39-1.92 2.64-5.22 3.58-8.55.93-3.39 1.64-7.03 2.14-10.71.27-1.84.43-3.71.59-5.58.16-1.83.28-3.81.28-5.48l16.74.81c-.21 2.28-.43 4.25-.67 6.35-.24 2.07-.56 4.14-.86 6.21-.64 4.15-1.37 8.32-2.46 12.58-.53 2.14-1.16 4.3-1.97 6.51-.83 2.21-1.77 4.5-3.23 6.9-1.48 2.35-3.47 5.09-7.26 7.23-1.89 1.04-4.26 1.74-6.58 1.82-.54.02-1.21 0-1.63-.02l-.86-.06-1.72-.12c-4.58-.42-9.11-1.31-13.5-2.6-4.37-1.35-8.63-3.02-12.68-5.08-4.06-2.04-7.88-4.47-11.56-7.11a82.192 82.192 0 0 1-5.38-4.21c-.88-.74-1.73-1.52-2.61-2.32l-1.31-1.24-.67-.67c-.25-.26-.42-.42-.8-.87l17.74-14.15z"/><path class="st108" d="M239.4 183.02c-.08-.06.08.16.15.27l.31.44.7.94c.49.64 1.03 1.26 1.58 1.89 1.11 1.25 2.28 2.48 3.51 3.65 2.46 2.35 5.18 4.44 8.01 6.3 5.66 3.74 11.98 6.29 18.55 7.33l1.24.17.62.09c.07.01-.11.01-.15.03-.33.03-.75.2-.88.33-.28.26.4-.13 1.04-1.08 1.39-1.92 2.64-5.22 3.58-8.55.93-3.39 1.64-7.03 2.14-10.71.27-1.84.43-3.71.59-5.58.16-1.83.28-3.81.28-5.48l16.74.81c-.21 2.28-.43 4.25-.67 6.35-.24 2.07-.56 4.14-.86 6.21-.64 4.15-1.37 8.32-2.46 12.58-.53 2.14-1.16 4.3-1.97 6.51-.83 2.21-1.77 4.5-3.23 6.9-1.48 2.35-3.47 5.09-7.26 7.23-1.89 1.04-4.26 1.74-6.58 1.82-.54.02-1.21 0-1.63-.02l-.86-.06-1.72-.12c-4.58-.42-9.11-1.31-13.5-2.6-4.37-1.35-8.63-3.02-12.68-5.08-4.06-2.04-7.88-4.47-11.56-7.11a82.192 82.192 0 0 1-5.38-4.21c-.88-.74-1.73-1.52-2.61-2.32l-1.31-1.24-.67-.67c-.25-.26-.42-.42-.8-.87l17.74-14.15z"/><path class="st107" d="M204.5 534.36c-2.12-4.75-.65-24.69-.36-27.97-3.68-1.92-16.32.45-16.32.45s3.53 20.97 1.41 27.52c4.88 2.7 15.27 0 15.27 0zm156.06-19.13c-3.99-3.33-12.36-21.54-13.54-24.61-4.16-.11-13.54 7.22-13.54 7.22s12.39 17.29 13.36 24.1c5.57.27 13.72-6.71 13.72-6.71z"/><path class="st93" d="M217.45 545.94c-10.63 0-12.45-.16-18.42-.36-5.12-.18-6.34.46-10.45.36-3.44-.07-3.31-3.36-2.25-7.14.38-1.35.9-2.91 1.44-4.81a3.429 3.429 0 0 1 3.3-2.48h11.67c1.07 0 2.05.52 2.73 1.36 2.83 3.5 8.91 6.06 14.24 6.77 5.7.76 1.98 6.3-2.26 6.3zm164.09-22.59c-11.44 5.17-17.45 2.54-23.19 3.85-4.92 1.11-4.77 2.04-9.67 3.44-3.25.93-4.91-2.56-4.64-5.61.18-1.98.39-4.27.35-6.68-.02-.88.47-1.7 1.27-2.06l11.38-5.16c.75-.34 1.62-.23 2.26.28 4.53 3.62 14.49 8.18 21.48 5.83 5.4-1.79 4.57 4.38.76 6.11z"/><path class="st106" d="M255.36 264.1s26.86 61.64 41.63 107.1c18.04 41.11 54.19 127.35 54.19 127.35.7 2.19-10.71 6.21-13.19 5.8 0 0-47.7-57.22-67.13-122.21-50.51-63.37-65.38-114.24-65.38-114.24l49.88-3.8z"/><path class="st94" d="M233.83 297.85c7.41 8.12 12.63 36.33 15.29 54.76-10.46-15.41-18.65-29.5-24.96-41.59.74-6.9 3.76-11.96 9.67-13.17z"/><path class="st106" d="M240.4 265.24s1.91 85.63-5.54 127.82c-7.82 44.3-32.02 97.73-30.31 126.81-2.49 1.45-11.25 1.53-16.15 0 0 0-8.36-86.33 16.79-128.47-5.44-42.19-19.96-96.82-7.07-122.94l42.28-3.22z"/><path class="st106" d="M205.78 513.81c.05 1.47.18 4.02.56 5.97.14.7-.34 1.36-1.04 1.47-5.91.95-14.47-.42-17.18-.91-.52-.09-.91-.51-1-1.03l-.88-5.59a1.25 1.25 0 0 1 1.25-1.44l17.07.33c.66.02 1.2.54 1.22 1.2z"/><path class="st109" d="M205.78 513.81c.05 1.47.18 4.02.56 5.97.14.7-.34 1.36-1.04 1.47-5.91.95-14.47-.42-17.18-.91-.52-.09-.91-.51-1-1.03l-.88-5.59a1.25 1.25 0 0 1 1.25-1.44l17.07.33c.66.02 1.2.54 1.22 1.2z"/><path class="st106" d="M349.88 492.23c.73 1.38 2.05 3.83 3.1 5.61.35.59.15 1.33-.43 1.69-4.36 2.68-12.08 5.38-14.63 6.24-.51.17-1.06 0-1.38-.43l-3.47-4.57c-.47-.62-.26-1.52.45-1.87l14.73-7.19c.59-.3 1.31-.07 1.63.52z"/><path class="st109" d="M349.88 492.23c.73 1.38 2.05 3.83 3.1 5.61.35.59.15 1.33-.43 1.69-4.36 2.68-12.08 5.38-14.63 6.24-.51.17-1.06 0-1.38-.43l-3.47-4.57c-.47-.62-.26-1.52.45-1.87l14.73-7.19c.59-.3 1.31-.07 1.63.52z"/><path class="st93" d="M243.94 191.54c1.42 5.46 3.72 11.47 6.48 24.68 2.55 11.12 4.4 30.68 4.94 47.88-7.46 6.66-32.31 5.53-57.23 4.36-.08-16.21-6.73-31.16-24.84-64.36-4.2-7.7-.8-16.78 7.31-19.5 2.17-.73 4.48-1.45 6.86-2.12 9.28-2.59 16.91-4.63 25.42-5.77 2.82-.38 5.76-.68 8.58-.92 10.19-.87 19.94 5.96 22.48 15.75z"/><path class="st108" d="M243.94 191.54c1.42 5.46 3.72 11.47 6.48 24.68 2.55 11.12 4.4 30.68 4.94 47.88-7.46 6.66-32.31 5.53-57.23 4.36-.08-16.21-6.73-31.16-24.84-64.36-4.2-7.7-.8-16.78 7.31-19.5 2.17-.73 4.48-1.45 6.86-2.12 9.28-2.59 16.91-4.63 25.42-5.77 2.82-.38 5.76-.68 8.58-.92 10.19-.87 19.94 5.96 22.48 15.75z"/><path class="st4" d="m214.52 176.67-25.66 5.49s20.77 8.66 37.4 22.02c4.54-22.83-11.74-27.51-11.74-27.51z"/><path class="st107" d="M182.74 153.46c4.07 7.67 10.19 22.04 6.12 28.71 0 0 23.17 6.7 35.52 17.31 1.65-17.17-9.86-22.81-9.86-22.81-9.78-.07-11.83-7.05-12.16-13.66l-19.62-9.55z"/><path class="st4" d="M204.5 184.37c-7.35 0-15.29-1.76-15.73-1.85a.363.363 0 0 1 .15-.71c.14.03 13.85 3.06 21.84 1.25 2.54-.58 4.03-1.51 4.42-2.77.52-1.7-1.14-3.49-1.15-3.51a.353.353 0 0 1 .02-.51c.15-.14.38-.13.51.02.08.09 1.96 2.12 1.32 4.22-.47 1.53-2.13 2.63-4.95 3.27-1.92.43-4.15.59-6.43.59z"/><path class="st93" d="M214.83 184.57c-.61.46-1.49.34-1.96-.27l-.8-1.06c-.46-.61-.34-1.49.27-1.96.61-.46 1.49-.34 1.96.27l.8 1.06c.47.62.35 1.5-.27 1.96z"/><path class="st94" d="m190.74 157.36 11.61 5.65c.07 1.56.24 3.13.58 4.61-3.64.3-9.57-2.38-11.05-5.88-.73-1.74-1.18-3.48-1.14-4.38z"/><path class="st107" d="M171.03 141.82c5.98 12.41 8.24 17.78 17.39 22.04 13.76 6.41 27.84-2.73 25.72-16.46-1.91-12.36-11.36-30.58-26-31.27-14.41-.68-23.09 13.28-17.11 25.69z"/><path class="st106" d="M176.27 123.79c6.5 9.24 6.17 24.37-1.49 26.43-11.68-1.8-14.16-4.82-14.16-4.82s3.77-28.47 15.65-21.61z"/><path class="st106" d="M167.12 127.59c17.19 2.19 30.87-4.99 33.44-9.01-15.56-10.52-31.73-1.57-33.44 9.01z"/><path d="M203 134.65s3.77 3.95 6.7 5.46c-.84 1.8-3.48 2.04-3.48 2.04l-3.22-7.5z" style="fill:#ff847f"/><path class="st106" d="M202.18 147.88c.59-.1 1.21-.25 1.85-.47.17-.06.25-.25.18-.42a.365.365 0 0 0-.45-.2c-4.66 1.63-8.24-.87-8.27-.89-.16-.11-.37-.09-.47.06-.1.14-.06.35.09.46.13.1 3.01 2.11 7.07 1.46z"/><path class="st107" d="M171.79 154.58c2.71 1.51 5.55 1.64 7.6.92 3.07-1.08 2.17-4.84-.73-7.23-2.61-2.15-7.35-4.18-9.46-1.8-2.07 2.36-.51 6.38 2.59 8.11z"/><path class="st4" d="M177.27 155.34c-2.34 0-4.23 1.89-4.23 4.24 0 2.34 1.89 4.23 4.23 4.23 2.34 0 4.24-1.89 4.24-4.23a4.223 4.223 0 0 0-4.24-4.24zm0 7.49a3.24 3.24 0 0 1-3.24-3.24c0-1.8 1.45-3.26 3.24-3.26a3.25 3.25 0 1 1 0 6.5z"/><path class="st106" d="M186.74 133.68c.15-.1.25-.25.28-.43.4-2.85 2.68-3.82 2.71-3.83.34-.14.49-.52.32-.85a.732.732 0 0 0-.92-.34c-.12.05-2.98 1.27-3.48 4.81-.05.35.22.69.6.75.18.02.35-.02.49-.11zm20.65-7.7c.17-.02.32-.1.43-.24.22-.28.15-.7-.16-.93-3.06-2.32-5.99-1.44-6.11-1.4-.35.11-.52.48-.38.83s.53.54.88.43c.11-.04 2.4-.69 4.83 1.16.14.12.33.17.51.15zm-.21 4.9c.37 1.08.1 2.15-.61 2.39-.71.24-1.59-.45-1.96-1.53-.37-1.08-.1-2.15.61-2.39.71-.23 1.58.45 1.96 1.53zm-12.61 5.19c.37 1.08.1 2.15-.61 2.39-.71.24-1.59-.45-1.96-1.53-.37-1.08-.1-2.15.61-2.39.71-.23 1.59.45 1.96 1.53z"/><path class="st106" d="m192 135.18 1.18-2.56c.01 0 .69 2.44-1.18 2.56zm12.52-5.04 1.18-2.56c.01.01.69 2.44-1.18 2.56z"/><path d="m189.31 205.67-12.61 4.74c5.19 9.62 9.3 17.6 12.45 24.51-1.3-15.28.16-29.25.16-29.25z" style="opacity:.5;fill:#007cff"/><path transform="rotate(-180 276.65 426.457)" class="st93" d="M268.36 306.96h16.59v238.99h-16.59z"/><path class="st94" d="M268.36 306.96h16.59v40.2l-16.59-4.28z"/><path class="st93" d="M217.38 336.72h147.95v-27.71c0-20.97-17-37.97-37.97-37.97h-72.01c-20.97 0-37.97 17-37.97 37.97v27.71z"/><path class="st107" d="m228.29 291.32-2.46-3.51a4.964 4.964 0 0 0-4.04-2.12l-7.53-.06a9.317 9.317 0 0 0-7.61 3.85l-1.09 1.51c3.68 6.1 12.14 9.97 12.14 9.97l2.29 1.37c2.04 1.22 4.54.66 5.75-1.3l2.78-4.5c.98-1.56.88-3.63-.23-5.21z"/><path class="st93" d="M194.03 202.09c-.38.79-.88 1.96-1.31 2.98l-1.29 3.22c-.84 2.17-1.63 4.36-2.37 6.56a118.42 118.42 0 0 0-3.58 13.29c-.44 2.21-.81 4.4-1.08 6.57-.23 2.16-.37 4.28-.37 6.33 0 4.07.63 7.82 1.85 10.43l.54 1.17c.04.09.08.2.11.3.6 2.32 2.2 5.22 4.23 7.99 2.04 2.79 4.48 5.56 7.13 8.21 2.67 2.63 5.53 5.17 8.5 7.61 1.49 1.22 3.02 2.39 4.56 3.54 1.51 1.14 3.17 2.31 4.61 3.26l-8.25 13.02c-1.96-1.24-3.64-2.37-5.42-3.58-1.75-1.2-3.47-2.44-5.19-3.7-3.44-2.51-6.79-5.17-10.06-8.04-3.28-2.87-6.49-5.92-9.51-9.46a54.926 54.926 0 0 1-4.33-5.77c-1.35-2.11-2.66-4.4-3.69-7.08l.65 1.46c-3.57-6.22-4.75-12.57-5.25-18.43-.44-5.9-.14-11.51.46-16.98.63-5.46 1.61-10.76 2.79-15.98a173.7 173.7 0 0 1 3.05-11.67c.4-1.33.76-2.51 1.3-4.05l21.92 8.8z"/><path class="st108" d="M194.03 202.09c-.38.79-.88 1.96-1.31 2.98l-1.29 3.22c-.84 2.17-1.63 4.36-2.37 6.56a118.42 118.42 0 0 0-3.58 13.29c-.44 2.21-.81 4.4-1.08 6.57-.23 2.16-.37 4.28-.37 6.33 0 4.07.63 7.82 1.85 10.43l.54 1.17c.04.09.08.2.11.3.6 2.32 2.2 5.22 4.23 7.99 2.04 2.79 4.48 5.56 7.13 8.21 2.67 2.63 5.53 5.17 8.5 7.61 1.49 1.22 3.02 2.39 4.56 3.54 1.51 1.14 3.17 2.31 4.61 3.26l-8.25 13.02c-1.96-1.24-3.64-2.37-5.42-3.58-1.75-1.2-3.47-2.44-5.19-3.7-3.44-2.51-6.79-5.17-10.06-8.04-3.28-2.87-6.49-5.92-9.51-9.46a54.926 54.926 0 0 1-4.33-5.77c-1.35-2.11-2.66-4.4-3.69-7.08l.65 1.46c-3.57-6.22-4.75-12.57-5.25-18.43-.44-5.9-.14-11.51.46-16.98.63-5.46 1.61-10.76 2.79-15.98a173.7 173.7 0 0 1 3.05-11.67c.4-1.33.76-2.51 1.3-4.05l21.92 8.8z"/><path transform="rotate(-180 253.389 319.36)" class="st109" d="M217.38 310.21h72.01v18.3h-72.01z"/><path class="st94" d="M289.39 336.72v-27.71c0-20.97 17-37.97 37.97-37.97s37.97 17 37.97 37.97v27.71"/><path transform="rotate(-180 341.348 339.159)" class="st93" d="M289.39 336.72H393.3v4.87H289.39z"/><path transform="rotate(-180 355.33 339.159)" class="st94" d="M317.36 336.72h75.94v4.87h-75.94z"/><path transform="rotate(-180 277.997 284.767)" style="fill:#e1e1e1" d="M276.65 252.7h2.69v64.14h-2.69z"/><path class="st93" d="M261.34 265.14h18.81v-9.2c0-.68-.55-1.23-1.23-1.23h-17.59l3.08 5.22-3.07 5.21z"/></svg>